<mxfile host="Electron" modified="2024-01-08T16:05:53.378Z" agent="Mozilla/5.0 (Windows NT 10.0; Win64; x64) AppleWebKit/537.36 (KHTML, like Gecko) draw.io/22.1.16 Chrome/120.0.6099.109 Electron/28.1.0 Safari/537.36" etag="YcmfeHFtTcWgkKM3UxXS" compressed="false" version="22.1.16" type="device">
  <diagram id="5mQjVeAMLh9t2EBukIg2" name="Page-1">
    <mxGraphModel dx="2284" dy="836" grid="1" gridSize="10" guides="1" tooltips="1" connect="1" arrows="1" fold="1" page="1" pageScale="1" pageWidth="850" pageHeight="1100" math="0" shadow="0">
      <root>
        <object tooltip="" id="0">
          <ag_global_attributes>
            <ag_global_attribute name="Resources" value="" iconName="hammer" min="0" max="5" />
            <ag_global_attribute name="Knowledge" value="" iconName="lightbulb" min="0" max="5" />
            <ag_global_attribute name="Location" value="" iconName="map_pin_ellipse" min="0" max="1" />
            <ag_global_attribute name="Impact" value="" iconName="flame" min="0" max="5" />
          </ag_global_attributes>
          <ag_attributes />
          <ag_computed_attributes />
          <ag_aggregation_functions>
            <ag_aggregation_function name="default" id="6b1d22791hih8" default="activity_w;link" fn="function (collection) { &#10;    var result = null; &#10;    if (collection.childAttributes.length == 1) { &#10;        result = collection.childAttributes[0].attributes;&#10;        result._marking = collection.childAttributes[0].id;&#10;    } else { &#10;        var candidates = []; &#10;        var worstValue = 0; &#10;        collection.childAttributes.forEach(function(child) { &#10;            var value = parseInt(child.computedAttribute); &#10;            if (value &gt; worstValue) { &#10;                worstValue = value; &#10;                candidates = []; &#10;                candidates.push(child); &#10;            } else if (value == worstValue) { &#10;                candidates.push(child); &#10;            } &#10;        }); &#10;        var tiebreaker = function(candidates, name, max) { &#10;            var min_value = max; &#10;            candidates.forEach(function(node) { &#10;                min_value = Math.min(min_value, node.attributes[name]); &#10;            }); &#10;            result = []; &#10;            candidates.forEach(function(node) { &#10;                if (node.attributes[name] == min_value) { &#10;                    result.push(node); &#10;                } &#10;            }); &#10;            return result; &#10;        }; &#10;        if (candidates.length &gt; 1) { &#10;            candidates = tiebreaker(candidates, &quot;Resources&quot;, collection.globalAttributes[&quot;Resources&quot;].max); &#10;            if (candidates.length &gt; 1) { &#10;                candidates = tiebreaker(candidates, &quot;Knowledge&quot;, collection.globalAttributes[&quot;Knowledge&quot;].max); &#10;            } &#10;        } &#10;        result = candidates[0].attributes;&#10;        result._marking = candidates[0].id;&#10;    } &#10;    return result; &#10;}" />
            <ag_aggregation_function name="AND" id="gf0d4f199018" default="and" fn="function (collection) { &#10;    var result = {}; &#10;    var ids = [];&#10;    collection.childAttributes.forEach(function(child) { &#10;    for (var attribute in child.attributes) { &#10;            if (attribute in result) { &#10;                result[attribute] += parseInt(child.attributes[attribute]); &#10;            } else { &#10;                result[attribute] = parseInt(child.attributes[attribute]); &#10;            } &#10;        }&#10;        ids.push(child.id);&#10;    }); &#10;    for (var attribute in result) { &#10;        if (attribute in collection.globalAttributes) { &#10;            result[attribute] = Math.min(collection.globalAttributes[attribute].max, result[attribute]); &#10;        } &#10;    }&#10;    result._marking = ids.join(&quot;;&quot;);&#10;    return result; &#10;}" />
            <ag_aggregation_function name="Security Control" id="73f575i0ghij5" default="activity_g;activity_y" fn="function (collection) { &#10;    var result = {}; &#10;    for (var attribute in collection.localAttributes) { &#10;        result[attribute] = parseInt(collection.localAttributes[attribute]); &#10;    } &#10;    collection.childAttributes.forEach(function(child) { &#10;        for (var attribute in child.attributes) { &#10;            if (attribute in collection.globalAttributes) { &#10;                if (attribute in result) { &#10;                    result[attribute] += parseInt(child.attributes[attribute]); &#10;                } &#10;            } &#10;        } &#10;    }); &#10;    for (var attribute in result) { &#10;        if (attribute in collection.globalAttributes) { &#10;            result[attribute] = Math.min(collection.globalAttributes[attribute].max, result[attribute]); &#10;        } &#10;    } &#10;    return result; &#10;}" />
            <ag_aggregation_function name="Risk" id="egf49jfgj408" default="consequence" fn="function (collection) {  &#10;    var maxRisk = &quot;L&quot;; &#10;    var matrix = [ &#10;        [&quot;L&quot;, &quot;L&quot;, &quot;L&quot;, &quot;L&quot;, &quot;L&quot;], &#10;        [&quot;L&quot;, &quot;L&quot;, &quot;M&quot;, &quot;M&quot;, &quot;M&quot;], &#10;        [&quot;L&quot;, &quot;M&quot;, &quot;M&quot;, &quot;S&quot;, &quot;S&quot;], &#10;        [&quot;L&quot;, &quot;M&quot;, &quot;S&quot;, &quot;V&quot;, &quot;V&quot;], &#10;        [&quot;L&quot;, &quot;M&quot;, &quot;S&quot;, &quot;V&quot;, &quot;V&quot;], &#10;    ];&#10;    var updatedImpacts = [];&#10;    var ids = [];&#10; &#10;    var compareRisk = function(risk1, risk2) { &#10;        /*&#10;        * Returns:&#10;        *  - Null: if one of the parameters is not a character representing a risk&#10;        *  - Negativ integer: if risk1 &lt; risk2&#10;        *  - Zero: if risks are equal&#10;        *  - Positive integer: if risk1 &gt; risk2&#10;        */&#10;        var values = [&quot;L&quot;, &quot;M&quot;, &quot;S&quot;, &quot;V&quot;]; &#10;        var index_risk1 = values.indexOf(risk1); &#10;        var index_risk2 = values.indexOf(risk2); &#10; &#10;        if (index_risk1 == -1 || index_risk2 == -1) { &#10;            return null; &#10;        } &#10;        return index_risk1 - index_risk2; &#10; &#10;    } &#10;     &#10;    collection.childAttributes.forEach(function(child) {  &#10;        var impact = 1;  &#10;        if (child.edgeWeight !== null) {  &#10;            impact = parseInt(child.edgeWeight);  &#10;        }&#10;        var _impact = parseInt(child.attributes._impact) || 0;&#10;        impact = Math.max(impact - _impact, 1);&#10;        updatedImpacts.push(child.id + ':' + impact);&#10;        var af = parseInt(child.computedAttribute) || parseInt(child.attributes._af);&#10;        risk = matrix[af - 1][impact - 1];&#10;        result = compareRisk(risk, maxRisk);&#10;        if (result &gt; 0) { &#10;            maxRisk = risk;&#10;            ids = [child.id];&#10;        } else if (result == 0){&#10;            ids.push(child.id);&#10;        }&#10;    });  &#10;  &#10;    var result = {'_risk': maxRisk, &quot;_marking&quot;: ids.join(&quot;;&quot;)};&#10;    if (updatedImpacts.length &gt; 0) {&#10;        result._weight = updatedImpacts.join(';');&#10;    }&#10;    return result;&#10;}" />
            <ag_aggregation_function name="Impact" id="397423adceb0f" default="" fn="function(collection) {&#10;    var impact = 0;&#10;    var result = {}&#10;    &#10;    collection.childAttributes.forEach(function(child) {&#10;        if (&quot;Impact&quot; in child.attributes) {&#10;            impact += parseInt(child.attributes[&quot;Impact&quot;]);&#10;        } else if (&quot;Resources&quot; in child.attributes &amp;&amp; &quot;Knowledge&quot; in child.attributes &amp;&amp; &quot;Location&quot; in child.attributes) {&#10;            result._af = child.computedAttribute&#10;            result._marking = child.id;&#10;        }&#10;    });&#10;    result._impact = Math.min(impact, collection.globalAttributes[&quot;Impact&quot;].max);&#10;    &#10;    return result;&#10;}" />
          </ag_aggregation_functions>
          <ag_computed_attributes_functions>
            <ag_computed_attributes_function name="default" id="dbg60ff69g9a" default="activity_w;activity_g;activity_y" fn="function (collection) { &#10;    var colorMatrix = {&#10;        5: {&quot;fillColor&quot;: &quot;#cc0000&quot;, &quot;fontColor&quot;: &quot;#ffffff&quot;},&#10;        4: {&quot;fillColor&quot;: &quot;#ff4000&quot;, &quot;fontColor&quot;: &quot;#ffffff&quot;},&#10;        3: {&quot;fillColor&quot;: &quot;#ffdd00&quot;, &quot;fontColor&quot;: &quot;#000000&quot;},&#10;        2: {&quot;fillColor&quot;: &quot;#d4ff00&quot;, &quot;fontColor&quot;: &quot;#000000&quot;},&#10;        1: {&quot;fillColor&quot;: &quot;#40ff00&quot;, &quot;fontColor&quot;: &quot;#000000&quot;}&#10;    }&#10;    var matrix = [ &#10;        [5, 5, 4, 3, 2], &#10;        [5, 4, 4, 3, 2], &#10;        [5, 4, 4, 3, 2], &#10;        [4, 3, 3, 2, 1], &#10;        [3, 2, 2, 1, 1], &#10;    ];&#10;    var result = {};&#10;    &#10;    if (&quot;Knowledge&quot; in collection.cellAttributes &amp;&amp; &quot;Resources&quot; in collection.cellAttributes) {&#10;        var knowledgeIndex = parseInt(collection.cellAttributes[&quot;Knowledge&quot;]) - 1; &#10;        var resourcesIndex = parseInt(collection.cellAttributes[&quot;Resources&quot;]) - 1;&#10;        &#10;        var value = Math.min(5, &#10;            Math.max(collection.globalAttributes[&quot;Location&quot;].max, &#10;                Math.max( matrix[knowledgeIndex][resourcesIndex] - parseInt(collection.cellAttributes[&quot;Location&quot;])) &#10;            ));&#10;        result = colorMatrix[value] || result;&#10;        result[&quot;value&quot;] = value;&#10;    }&#10;    &#10;    return result;&#10;}" />
            <ag_computed_attributes_function name="Risk" id="6c831697g9i0a" default="" fn="function(collection){&#10;    var riskMatrix = {&#10;        &quot;V&quot;: {&quot;fillColor&quot;: &quot;#cc0000&quot;, &quot;fontColor&quot;: &quot;#ffffff&quot;},&#10;        &quot;S&quot;: {&quot;fillColor&quot;: &quot;#ff4000&quot;, &quot;fontColor&quot;: &quot;#ffffff&quot;},&#10;        &quot;M&quot;: {&quot;fillColor&quot;: &quot;#ffdd00&quot;, &quot;fontColor&quot;: &quot;#000000&quot;},&#10;        &quot;L&quot;: {&quot;fillColor&quot;: &quot;#40ff00&quot;, &quot;fontColor&quot;: &quot;#000000&quot;},&#10;    };&#10;    var result = {};&#10;    &#10;    if (&quot;_risk&quot; in collection.cellAttributes) {&#10;        var risk = collection.cellAttributes[&quot;_risk&quot;];&#10;        result = riskMatrix[risk] || result;&#10;        result[&quot;value&quot;] = risk;&#10;    }&#10;    &#10;    return result; &#10;}" />
          </ag_computed_attributes_functions>
          <mxCell />
        </object>
        <object id="1">
          <ag_attributes />
          <ag_computed_attributes />
          <mxCell parent="0" />
        </object>
        <object label="Attack Target&#10;Intermodal Travel Chain" id="uPvtzUqCq0j5UhJlTc7c-1">
          <ag_attributes />
          <ag_computed_attributes />
          <mxCell style="whiteSpace=wrap;shape=trapezoid;size=0.075;" parent="1" vertex="1">
            <mxGeometry x="1550" y="30" width="224" height="60" as="geometry" />
          </mxCell>
        </object>
        <object label="Violation of Laws and Regulations" id="uPvtzUqCq0j5UhJlTc7c-2">
          <ag_attributes _risk="L" _marking="uPvtzUqCq0j5UhJlTc7c-3;uPvtzUqCq0j5UhJlTc7c-4" _weight="uPvtzUqCq0j5UhJlTc7c-3:3;uPvtzUqCq0j5UhJlTc7c-4:2" />
          <ag_computed_attributes fillColor="#40ff00" fontColor="#000000" value="L" />
          <ag_computed_attributes_function_reference ag_computed_attributes_function_reference="6c831697g9i0a" />
          <ag_aggregation_function_reference ag_aggregation_function_reference="egf49jfgj408" />
          <mxCell style="verticalAlign=middle;align=center;fillColor=#FFFFFF;gradientColor=none;labelBackgroundColor=none;rounded=1;whiteSpace=wrap;shape=attackgraphs.node;" parent="1" vertex="1">
            <mxGeometry x="2120" y="120" width="236" height="48" as="geometry" />
          </mxCell>
        </object>
        <object label="Disclosure of Private Data&#10;(Location, Biometric Data)" Resources="" Knowledge="" Location="" id="uPvtzUqCq0j5UhJlTc7c-3">
          <ag_attributes label="NaN" Resources="4" Knowledge="4" Location="1" _marking="uPvtzUqCq0j5UhJlTc7c-11" />
          <ag_computed_attributes fillColor="#40ff00" fontColor="#000000" value="1" />
          <ag_computed_attributes_function_reference ag_computed_attributes_function_reference="dbg60ff69g9a" />
          <ag_aggregation_function_reference ag_aggregation_function_reference="6b1d22791hih8" />
          <mxCell style="verticalAlign=top;align=center;fillColor=#FFFFFF;gradientColor=none;labelBackgroundColor=none;rounded=0;whiteSpace=wrap;shape=attackgraphs.node;spacingRight=20;" parent="1" vertex="1">
            <mxGeometry x="2160" y="360" width="193.5" height="60" as="geometry" />
          </mxCell>
        </object>
        <object label="Stalk individual user" Resources="" Knowledge="" Location="" id="uPvtzUqCq0j5UhJlTc7c-4">
          <ag_attributes label="NaN" Resources="4" Knowledge="4" Location="1" _marking="uPvtzUqCq0j5UhJlTc7c-7" />
          <ag_computed_attributes fillColor="#40ff00" fontColor="#000000" value="1" />
          <ag_aggregation_function_reference ag_aggregation_function_reference="6b1d22791hih8" />
          <ag_computed_attributes_function_reference ag_computed_attributes_function_reference="dbg60ff69g9a" />
          <mxCell style="verticalAlign=top;align=center;fillColor=#FFFFFF;gradientColor=none;labelBackgroundColor=none;rounded=0;whiteSpace=wrap;shape=attackgraphs.node;spacingRight=20;" parent="1" vertex="1">
            <mxGeometry x="2600" y="360" width="180" height="60" as="geometry" />
          </mxCell>
        </object>
        <object label="3" id="uPvtzUqCq0j5UhJlTc7c-5">
          <ag_attributes />
          <ag_computed_attributes />
          <mxCell style="endArrow=classic;startArrow=none;startFill=0;endFill=1;strokeWidth=2;strokeColor=#000000;fontSize=15;" parent="1" source="uPvtzUqCq0j5UhJlTc7c-2" target="uPvtzUqCq0j5UhJlTc7c-3" edge="1">
            <mxGeometry width="50" height="50" relative="1" as="geometry">
              <mxPoint x="2290" y="310" as="sourcePoint" />
              <mxPoint x="2520" y="570" as="targetPoint" />
            </mxGeometry>
          </mxCell>
        </object>
        <object label="2" id="uPvtzUqCq0j5UhJlTc7c-6">
          <ag_attributes />
          <ag_computed_attributes />
          <mxCell style="endArrow=classic;startArrow=none;startFill=0;endFill=1;strokeWidth=2;strokeColor=#000000;fontSize=15;" parent="1" source="uPvtzUqCq0j5UhJlTc7c-2" target="uPvtzUqCq0j5UhJlTc7c-4" edge="1">
            <mxGeometry width="50" height="50" relative="1" as="geometry">
              <mxPoint x="2430" y="300" as="sourcePoint" />
              <mxPoint x="2792.9799999999996" y="259.00800000000004" as="targetPoint" />
            </mxGeometry>
          </mxCell>
        </object>
        <object label="Eavesdrop on communications" Resources="" Knowledge="" Location="" id="uPvtzUqCq0j5UhJlTc7c-7">
          <ag_attributes label="NaN" Resources="4" Knowledge="4" Location="1" _marking="uPvtzUqCq0j5UhJlTc7c-8" />
          <ag_computed_attributes fillColor="#40ff00" fontColor="#000000" value="1" />
          <ag_computed_attributes_function_reference ag_computed_attributes_function_reference="dbg60ff69g9a" />
          <ag_aggregation_function_reference ag_aggregation_function_reference="6b1d22791hih8" />
          <mxCell style="verticalAlign=top;align=center;fillColor=#FFFFFF;gradientColor=none;labelBackgroundColor=none;rounded=0;whiteSpace=wrap;shape=attackgraphs.node;spacingRight=20;" parent="1" vertex="1">
            <mxGeometry x="2380.5" y="560" width="160" height="60" as="geometry" />
          </mxCell>
        </object>
        <object id="eCq6edl6h6hgmWOPJE0u-16">
          <ag_attributes />
          <ag_computed_attributes />
          <mxCell style="edgeStyle=none;rounded=0;orthogonalLoop=1;jettySize=auto;html=1;strokeWidth=2;startArrow=diamondThin;startFill=1;endArrow=none;endFill=0;strokeColor=#000000;" parent="1" source="uPvtzUqCq0j5UhJlTc7c-8" target="_DiuqgOfEGZcNAKlj9fZ-1" edge="1">
            <mxGeometry relative="1" as="geometry">
              <mxPoint x="2781.999999999999" y="1670" as="targetPoint" />
            </mxGeometry>
          </mxCell>
        </object>
        <object id="eCq6edl6h6hgmWOPJE0u-14">
          <ag_attributes />
          <ag_computed_attributes />
          <mxCell style="edgeStyle=none;rounded=0;orthogonalLoop=1;jettySize=auto;html=1;strokeWidth=2;startArrow=diamondThin;startFill=1;endArrow=none;endFill=0;strokeColor=#000000;" parent="1" source="uPvtzUqCq0j5UhJlTc7c-9" target="_DiuqgOfEGZcNAKlj9fZ-2" edge="1">
            <mxGeometry relative="1" as="geometry" />
          </mxCell>
        </object>
        <object id="eCq6edl6h6hgmWOPJE0u-15">
          <ag_attributes />
          <ag_computed_attributes />
          <mxCell style="edgeStyle=none;rounded=0;orthogonalLoop=1;jettySize=auto;html=1;strokeWidth=2;startArrow=diamondThin;startFill=1;endArrow=none;endFill=0;strokeColor=#000000;" parent="1" source="uPvtzUqCq0j5UhJlTc7c-9" target="eCq6edl6h6hgmWOPJE0u-5" edge="1">
            <mxGeometry relative="1" as="geometry" />
          </mxCell>
        </object>
        <object label="Correlate Data Sets" Resources="1" Knowledge="2" Location="0" id="uPvtzUqCq0j5UhJlTc7c-9">
          <ag_attributes label="NaN" Resources="4" Knowledge="5" Location="0" />
          <ag_computed_attributes fillColor="#40ff00" fontColor="#000000" value="1" />
          <ag_computed_attributes_function_reference ag_computed_attributes_function_reference="dbg60ff69g9a" />
          <ag_aggregation_function_reference ag_aggregation_function_reference="73f575i0ghij5" />
          <mxCell style="verticalAlign=top;align=center;fillColor=#d7e3bf;gradientColor=none;labelBackgroundColor=none;rounded=0;whiteSpace=wrap;shape=attackgraphs.node;spacingRight=20;" parent="1" vertex="1">
            <mxGeometry x="2694" y="560" width="160" height="60" as="geometry" />
          </mxCell>
        </object>
        <object label="Extract Data" Resources="" Knowledge="" Location="" id="uPvtzUqCq0j5UhJlTc7c-11">
          <ag_attributes label="NaN" Resources="4" Knowledge="4" Location="1" _marking="uPvtzUqCq0j5UhJlTc7c-8" />
          <ag_computed_attributes fillColor="#40ff00" fontColor="#000000" value="1" />
          <ag_computed_attributes_function_reference ag_computed_attributes_function_reference="dbg60ff69g9a" />
          <ag_aggregation_function_reference ag_aggregation_function_reference="6b1d22791hih8" />
          <mxCell style="verticalAlign=top;align=center;fillColor=#FFFFFF;gradientColor=none;labelBackgroundColor=none;rounded=0;whiteSpace=wrap;shape=attackgraphs.node;spacingRight=20;" parent="1" vertex="1">
            <mxGeometry x="2220" y="560" width="144" height="60" as="geometry" />
          </mxCell>
        </object>
        <object id="eCq6edl6h6hgmWOPJE0u-22">
          <ag_attributes />
          <ag_computed_attributes />
          <mxCell style="edgeStyle=none;rounded=1;orthogonalLoop=1;jettySize=auto;html=1;strokeWidth=2;startArrow=diamondThin;startFill=1;endArrow=none;endFill=0;strokeColor=#000000;" parent="1" source="uPvtzUqCq0j5UhJlTc7c-13" target="eCq6edl6h6hgmWOPJE0u-21" edge="1">
            <mxGeometry relative="1" as="geometry">
              <Array as="points">
                <mxPoint x="1810" y="1120" />
              </Array>
            </mxGeometry>
          </mxCell>
        </object>
        <object id="uPvtzUqCq0j5UhJlTc7c-15">
          <ag_attributes />
          <ag_computed_attributes />
          <mxCell style="edgeStyle=none;startArrow=none;endArrow=classic;spacingTop=0;spacingBottom=0;spacingLeft=0;spacingRight=0;verticalAlign=middle;labelBackgroundColor=#ffffff;rounded=0;startFill=0;endFill=1;strokeWidth=2;strokeColor=#000000;" parent="1" source="uPvtzUqCq0j5UhJlTc7c-4" target="uPvtzUqCq0j5UhJlTc7c-9" edge="1">
            <mxGeometry relative="1" as="geometry">
              <mxPoint as="offset" />
              <Array as="points" />
              <mxPoint x="2538" y="388" as="sourcePoint" />
            </mxGeometry>
          </mxCell>
        </object>
        <object label="" id="uPvtzUqCq0j5UhJlTc7c-16">
          <ag_attributes />
          <ag_computed_attributes />
          <mxCell style="edgeStyle=none;startArrow=none;endArrow=classic;spacingTop=0;spacingBottom=0;spacingLeft=0;spacingRight=0;verticalAlign=middle;labelBackgroundColor=#ffffff;rounded=0;align=center;startFill=0;endFill=1;strokeWidth=2;strokeColor=#000000;" parent="1" source="uPvtzUqCq0j5UhJlTc7c-11" target="uPvtzUqCq0j5UhJlTc7c-13" edge="1">
            <mxGeometry relative="1" as="geometry">
              <mxPoint x="-1" y="-1" as="offset" />
              <Array as="points" />
            </mxGeometry>
          </mxCell>
        </object>
        <object label="" id="uPvtzUqCq0j5UhJlTc7c-18">
          <ag_attributes />
          <ag_computed_attributes />
          <mxCell style="edgeStyle=none;startArrow=none;endArrow=classic;spacingTop=0;spacingBottom=0;spacingLeft=0;spacingRight=0;verticalAlign=middle;labelBackgroundColor=#ffffff;rounded=0;align=center;startFill=0;endFill=1;strokeWidth=2;strokeColor=#000000;" parent="1" source="uPvtzUqCq0j5UhJlTc7c-3" target="uPvtzUqCq0j5UhJlTc7c-11" edge="1">
            <mxGeometry relative="1" as="geometry">
              <mxPoint y="-1" as="offset" />
              <Array as="points" />
              <mxPoint x="2280.999999999999" y="388" as="sourcePoint" />
            </mxGeometry>
          </mxCell>
        </object>
        <object id="uPvtzUqCq0j5UhJlTc7c-21">
          <ag_attributes />
          <ag_computed_attributes />
          <mxCell style="edgeStyle=none;startArrow=none;endArrow=classic;spacingTop=0;spacingBottom=0;spacingLeft=0;spacingRight=0;verticalAlign=middle;labelBackgroundColor=#ffffff;rounded=0;startFill=0;endFill=1;strokeWidth=2;strokeColor=#000000;" parent="1" source="uPvtzUqCq0j5UhJlTc7c-3" target="uPvtzUqCq0j5UhJlTc7c-7" edge="1">
            <mxGeometry relative="1" as="geometry">
              <mxPoint x="-1" y="-1" as="offset" />
              <Array as="points" />
              <mxPoint x="2320.999999999999" y="388" as="sourcePoint" />
            </mxGeometry>
          </mxCell>
        </object>
        <object label="" id="uPvtzUqCq0j5UhJlTc7c-22">
          <ag_attributes />
          <ag_computed_attributes />
          <mxCell style="edgeStyle=none;startArrow=none;endArrow=classic;spacingTop=0;spacingBottom=0;spacingLeft=0;spacingRight=0;verticalAlign=middle;labelBackgroundColor=#ffffff;rounded=0;align=center;startFill=0;endFill=1;strokeWidth=2;strokeColor=#000000;" parent="1" source="uPvtzUqCq0j5UhJlTc7c-7" target="uPvtzUqCq0j5UhJlTc7c-31" edge="1">
            <mxGeometry x="0.5312" relative="1" as="geometry">
              <mxPoint as="offset" />
              <Array as="points" />
              <mxPoint x="2445" y="848" as="targetPoint" />
            </mxGeometry>
          </mxCell>
        </object>
        <object label="" id="uPvtzUqCq0j5UhJlTc7c-23">
          <ag_attributes />
          <ag_computed_attributes />
          <mxCell style="edgeStyle=none;startArrow=none;endArrow=classic;spacingTop=0;spacingBottom=0;spacingLeft=0;spacingRight=0;verticalAlign=middle;labelBackgroundColor=#ffffff;rounded=0;align=center;startFill=0;endFill=1;strokeWidth=2;strokeColor=#000000;" parent="1" source="uPvtzUqCq0j5UhJlTc7c-7" target="uPvtzUqCq0j5UhJlTc7c-8" edge="1">
            <mxGeometry relative="1" as="geometry">
              <mxPoint as="offset" />
              <Array as="points" />
            </mxGeometry>
          </mxCell>
        </object>
        <object label="" id="uPvtzUqCq0j5UhJlTc7c-27">
          <ag_attributes />
          <ag_computed_attributes />
          <mxCell style="edgeStyle=none;startArrow=none;endArrow=classic;spacingTop=0;spacingBottom=0;spacingLeft=0;spacingRight=0;verticalAlign=middle;labelBackgroundColor=#ffffff;rounded=0;align=center;exitX=0.69;exitY=1.033;exitDx=0;exitDy=0;exitPerimeter=0;startFill=0;endFill=1;strokeWidth=2;strokeColor=#000000;" parent="1" source="uPvtzUqCq0j5UhJlTc7c-11" target="uPvtzUqCq0j5UhJlTc7c-31" edge="1">
            <mxGeometry relative="1" as="geometry">
              <mxPoint x="-1" y="-1" as="offset" />
              <Array as="points" />
              <mxPoint x="2412" y="735" as="sourcePoint" />
              <mxPoint x="2410.5279999999993" y="848.6800000000001" as="targetPoint" />
            </mxGeometry>
          </mxCell>
        </object>
        <object label="" id="uPvtzUqCq0j5UhJlTc7c-28">
          <ag_attributes />
          <ag_computed_attributes />
          <mxCell style="edgeStyle=none;startArrow=none;endArrow=classic;spacingTop=0;spacingBottom=0;spacingLeft=0;spacingRight=0;verticalAlign=middle;labelBackgroundColor=#ffffff;rounded=0;align=center;startFill=0;endFill=1;strokeWidth=2;strokeColor=#000000;" parent="1" source="uPvtzUqCq0j5UhJlTc7c-11" target="uPvtzUqCq0j5UhJlTc7c-8" edge="1">
            <mxGeometry x="0.6488" y="-3" relative="1" as="geometry">
              <mxPoint as="offset" />
              <Array as="points" />
              <mxPoint x="2261.3600000000006" y="736.155" as="sourcePoint" />
              <mxPoint x="2420.5280000000002" y="858.6800000000001" as="targetPoint" />
            </mxGeometry>
          </mxCell>
        </object>
        <object label="" id="uPvtzUqCq0j5UhJlTc7c-29">
          <ag_attributes />
          <ag_computed_attributes />
          <mxCell style="endArrow=classic;startArrow=none;startFill=0;endFill=1;strokeWidth=2;strokeColor=#000000;" parent="1" source="uPvtzUqCq0j5UhJlTc7c-3" target="uPvtzUqCq0j5UhJlTc7c-9" edge="1">
            <mxGeometry width="50" height="50" relative="1" as="geometry">
              <mxPoint x="2370" y="410" as="sourcePoint" />
              <mxPoint x="2670" y="420" as="targetPoint" />
            </mxGeometry>
          </mxCell>
        </object>
        <object label="" id="uPvtzUqCq0j5UhJlTc7c-30">
          <ag_attributes />
          <ag_computed_attributes />
          <mxCell style="endArrow=classic;startArrow=none;startFill=0;endFill=1;strokeWidth=2;strokeColor=#000000;" parent="1" source="uPvtzUqCq0j5UhJlTc7c-4" target="uPvtzUqCq0j5UhJlTc7c-7" edge="1">
            <mxGeometry width="50" height="50" relative="1" as="geometry">
              <mxPoint x="2570" y="460" as="sourcePoint" />
              <mxPoint x="2376.449438202247" y="398" as="targetPoint" />
            </mxGeometry>
          </mxCell>
        </object>
        <object id="eCq6edl6h6hgmWOPJE0u-12">
          <ag_attributes />
          <ag_computed_attributes />
          <mxCell style="edgeStyle=none;rounded=0;orthogonalLoop=1;jettySize=auto;html=1;strokeWidth=2;startArrow=diamondThin;startFill=1;endArrow=none;endFill=0;strokeColor=#000000;" parent="1" source="uPvtzUqCq0j5UhJlTc7c-31" target="eCq6edl6h6hgmWOPJE0u-7" edge="1">
            <mxGeometry relative="1" as="geometry" />
          </mxCell>
        </object>
        <object label="Eavesdropping on communication channels" Resources="2" Knowledge="2" Location="0" id="uPvtzUqCq0j5UhJlTc7c-31">
          <ag_attributes label="NaN" Resources="5" Knowledge="5" Location="0" />
          <ag_computed_attributes fillColor="#40ff00" fontColor="#000000" value="1" />
          <ag_computed_attributes_function_reference ag_computed_attributes_function_reference="dbg60ff69g9a" />
          <ag_aggregation_function_reference ag_aggregation_function_reference="73f575i0ghij5" />
          <mxCell style="verticalAlign=top;align=center;fillColor=#fee599;gradientColor=none;labelBackgroundColor=none;rounded=0;whiteSpace=wrap;shape=attackgraphs.node;spacingRight=20;" parent="1" vertex="1">
            <mxGeometry x="2258" y="760" width="144" height="60" as="geometry" />
          </mxCell>
        </object>
        <object label="Violation of Privacy" id="uPvtzUqCq0j5UhJlTc7c-32">
          <ag_attributes _risk="L" _marking="uPvtzUqCq0j5UhJlTc7c-3;uPvtzUqCq0j5UhJlTc7c-4" _weight="uPvtzUqCq0j5UhJlTc7c-3:3;uPvtzUqCq0j5UhJlTc7c-4:2" />
          <ag_computed_attributes fillColor="#40ff00" fontColor="#000000" value="L" />
          <ag_computed_attributes_function_reference ag_computed_attributes_function_reference="6c831697g9i0a" />
          <ag_aggregation_function_reference ag_aggregation_function_reference="egf49jfgj408" />
          <mxCell style="verticalAlign=middle;align=center;fillColor=#FFFFFF;gradientColor=none;labelBackgroundColor=none;rounded=1;whiteSpace=wrap;shape=attackgraphs.node;" parent="1" vertex="1">
            <mxGeometry x="2609" y="120" width="180" height="48" as="geometry" />
          </mxCell>
        </object>
        <object label="3" id="uPvtzUqCq0j5UhJlTc7c-33">
          <ag_attributes />
          <ag_computed_attributes />
          <mxCell style="endArrow=classic;startArrow=none;startFill=0;endFill=1;strokeWidth=2;strokeColor=#000000;fontSize=15;" parent="1" source="uPvtzUqCq0j5UhJlTc7c-32" target="uPvtzUqCq0j5UhJlTc7c-3" edge="1">
            <mxGeometry width="50" height="50" relative="1" as="geometry">
              <mxPoint x="2407.753456221198" y="350" as="sourcePoint" />
              <mxPoint x="2633" y="280" as="targetPoint" />
            </mxGeometry>
          </mxCell>
        </object>
        <object label="2" id="uPvtzUqCq0j5UhJlTc7c-34">
          <ag_attributes />
          <ag_computed_attributes />
          <mxCell style="endArrow=classic;startArrow=none;startFill=0;endFill=1;strokeWidth=2;strokeColor=#000000;fontSize=15;" parent="1" source="uPvtzUqCq0j5UhJlTc7c-32" target="uPvtzUqCq0j5UhJlTc7c-4" edge="1">
            <mxGeometry width="50" height="50" relative="1" as="geometry">
              <mxPoint x="2770" y="290" as="sourcePoint" />
              <mxPoint x="2518" y="248" as="targetPoint" />
            </mxGeometry>
          </mxCell>
        </object>
        <object label="Financial Damage&#10;Individual" id="uPvtzUqCq0j5UhJlTc7c-35">
          <ag_attributes _risk="L" _marking="uPvtzUqCq0j5UhJlTc7c-41" _weight="uPvtzUqCq0j5UhJlTc7c-41:2" />
          <ag_computed_attributes fillColor="#40ff00" fontColor="#000000" value="L" />
          <ag_computed_attributes_function_reference ag_computed_attributes_function_reference="6c831697g9i0a" />
          <ag_aggregation_function_reference ag_aggregation_function_reference="egf49jfgj408" />
          <mxCell style="rounded=1;whiteSpace=wrap;shape=attackgraphs.node;" parent="1" vertex="1">
            <mxGeometry x="455" y="120" width="180" height="48" as="geometry" />
          </mxCell>
        </object>
        <object label="Financial Damage&#10;Operator" id="uPvtzUqCq0j5UhJlTc7c-36">
          <ag_attributes _risk="L" _marking="eCq6edl6h6hgmWOPJE0u-34;uPvtzUqCq0j5UhJlTc7c-67" _weight="eCq6edl6h6hgmWOPJE0u-34:1;uPvtzUqCq0j5UhJlTc7c-67:3" />
          <ag_computed_attributes fillColor="#40ff00" fontColor="#000000" value="L" />
          <ag_computed_attributes_function_reference ag_computed_attributes_function_reference="6c831697g9i0a" />
          <ag_aggregation_function_reference ag_aggregation_function_reference="egf49jfgj408" />
          <mxCell style="verticalAlign=middle;align=center;fillColor=#FFFFFF;gradientColor=none;labelBackgroundColor=none;rounded=1;whiteSpace=wrap;shape=attackgraphs.node;" parent="1" vertex="1">
            <mxGeometry x="1322" y="120" width="180" height="48" as="geometry" />
          </mxCell>
        </object>
        <object label="Reputational Damage Operator" id="uPvtzUqCq0j5UhJlTc7c-37">
          <ag_attributes _risk="L" _marking="eCq6edl6h6hgmWOPJE0u-34;uPvtzUqCq0j5UhJlTc7c-41;uPvtzUqCq0j5UhJlTc7c-67" _weight="eCq6edl6h6hgmWOPJE0u-34:1;uPvtzUqCq0j5UhJlTc7c-41:2;uPvtzUqCq0j5UhJlTc7c-67:3" />
          <ag_computed_attributes fillColor="#40ff00" fontColor="#000000" value="L" />
          <ag_computed_attributes_function_reference ag_computed_attributes_function_reference="6c831697g9i0a" />
          <ag_aggregation_function_reference ag_aggregation_function_reference="egf49jfgj408" />
          <mxCell style="verticalAlign=middle;align=center;fillColor=#FFFFFF;gradientColor=none;labelBackgroundColor=none;rounded=1;whiteSpace=wrap;shape=attackgraphs.node;" parent="1" vertex="1">
            <mxGeometry x="889" y="120" width="180" height="48" as="geometry" />
          </mxCell>
        </object>
        <object label="Market manipulation to the disadvantage/advantage of a group" id="uPvtzUqCq0j5UhJlTc7c-38">
          <ag_attributes _risk="L" _marking="uPvtzUqCq0j5UhJlTc7c-41;Zh3dSjUnpUvwRO7Crw0d-19" _weight="uPvtzUqCq0j5UhJlTc7c-41:2;Zh3dSjUnpUvwRO7Crw0d-19:2" />
          <ag_computed_attributes fillColor="#40ff00" fontColor="#000000" value="L" />
          <ag_computed_attributes_function_reference ag_computed_attributes_function_reference="6c831697g9i0a" />
          <ag_aggregation_function_reference ag_aggregation_function_reference="egf49jfgj408" />
          <mxCell style="verticalAlign=middle;align=center;fillColor=#ffffff;gradientColor=none;labelBackgroundColor=none;rounded=1;whiteSpace=wrap;shape=attackgraphs.node;" parent="1" vertex="1">
            <mxGeometry y="120" width="224" height="48" as="geometry" />
          </mxCell>
        </object>
        <object label="Manipulate robot assistants" Resources="" Knowledge="" Location="" id="uPvtzUqCq0j5UhJlTc7c-40">
          <ag_attributes label="NaN" Resources="3" Knowledge="3" Location="1" _marking="uPvtzUqCq0j5UhJlTc7c-44" />
          <ag_computed_attributes fillColor="#ffdd00" fontColor="#000000" value="3" />
          <ag_computed_attributes_function_reference ag_computed_attributes_function_reference="dbg60ff69g9a" />
          <ag_aggregation_function_reference ag_aggregation_function_reference="6b1d22791hih8" />
          <mxCell style="verticalAlign=top;align=center;fillColor=#FFFFFF;gradientColor=none;labelBackgroundColor=none;rounded=0;whiteSpace=wrap;shape=attackgraphs.node;spacingRight=20;" parent="1" vertex="1">
            <mxGeometry x="1327.5" y="360" width="180" height="60" as="geometry" />
          </mxCell>
        </object>
        <object label="Manipulate Automated Personal Assistant" Resources="" Knowledge="" Location="" id="uPvtzUqCq0j5UhJlTc7c-41">
          <ag_attributes label="NaN" Resources="4" Knowledge="4" Location="1" _marking="uPvtzUqCq0j5UhJlTc7c-57" />
          <ag_computed_attributes fillColor="#40ff00" fontColor="#000000" value="1" />
          <ag_computed_attributes_function_reference ag_computed_attributes_function_reference="dbg60ff69g9a" />
          <ag_aggregation_function_reference ag_aggregation_function_reference="6b1d22791hih8" />
          <mxCell style="verticalAlign=top;align=center;fillColor=#FFFFFF;gradientColor=none;labelBackgroundColor=none;rounded=0;whiteSpace=wrap;shape=attackgraphs.node;spacingRight=20;" parent="1" vertex="1">
            <mxGeometry x="49.5" y="360" width="180" height="60" as="geometry" />
          </mxCell>
        </object>
        <object label="Manipulate travel recommendations" Resources="" Knowledge="" Location="" id="uPvtzUqCq0j5UhJlTc7c-42">
          <ag_attributes label="NaN" Resources="4" Knowledge="4" Location="1" _marking="uPvtzUqCq0j5UhJlTc7c-43" />
          <ag_computed_attributes fillColor="#40ff00" fontColor="#000000" value="1" />
          <ag_computed_attributes_function_reference ag_computed_attributes_function_reference="dbg60ff69g9a" />
          <ag_aggregation_function_reference ag_aggregation_function_reference="6b1d22791hih8" />
          <mxCell style="verticalAlign=top;align=center;fillColor=#FFFFFF;gradientColor=none;labelBackgroundColor=none;rounded=0;whiteSpace=wrap;shape=attackgraphs.node;spacingRight=20;" parent="1" vertex="1">
            <mxGeometry x="60.5" y="560" width="180" height="60" as="geometry" />
          </mxCell>
        </object>
        <object label="Manipulation Machine Learning" Resources="" Knowledge="" Location="" id="uPvtzUqCq0j5UhJlTc7c-43">
          <ag_attributes label="NaN" Resources="4" Knowledge="4" Location="1" _marking="PANx_2H3_iy-v-Putqux-5" />
          <ag_computed_attributes fillColor="#40ff00" fontColor="#000000" value="1" />
          <ag_computed_attributes_function_reference ag_computed_attributes_function_reference="dbg60ff69g9a" />
          <ag_aggregation_function_reference ag_aggregation_function_reference="6b1d22791hih8" />
          <mxCell style="verticalAlign=top;align=center;gradientColor=none;labelBackgroundColor=none;rounded=0;whiteSpace=wrap;shape=attackgraphs.node;spacingRight=20;" parent="1" vertex="1">
            <mxGeometry x="-30" y="760" width="180" height="60" as="geometry" />
          </mxCell>
        </object>
        <object id="eCq6edl6h6hgmWOPJE0u-36">
          <ag_attributes />
          <ag_computed_attributes />
          <mxCell style="edgeStyle=none;rounded=0;orthogonalLoop=1;jettySize=auto;html=1;strokeWidth=2;startArrow=diamondThin;startFill=1;endArrow=none;endFill=0;strokeColor=#000000;" parent="1" source="uPvtzUqCq0j5UhJlTc7c-44" target="eCq6edl6h6hgmWOPJE0u-8" edge="1">
            <mxGeometry relative="1" as="geometry" />
          </mxCell>
        </object>
        <object label="Physically sabotage/destroy robot assistants" Resources="2" Knowledge="1" Location="1" id="uPvtzUqCq0j5UhJlTc7c-44">
          <ag_attributes label="NaN" Resources="3" Knowledge="3" Location="1" />
          <ag_computed_attributes fillColor="#ffdd00" fontColor="#000000" value="3" />
          <ag_computed_attributes_function_reference ag_computed_attributes_function_reference="dbg60ff69g9a" />
          <ag_aggregation_function_reference ag_aggregation_function_reference="73f575i0ghij5" />
          <mxCell style="verticalAlign=top;align=center;labelBackgroundColor=none;rounded=0;whiteSpace=wrap;fillColor=#FEE599;shape=attackgraphs.node;spacingRight=20;" parent="1" vertex="1">
            <mxGeometry x="1880" y="560" width="180" height="60" as="geometry" />
          </mxCell>
        </object>
        <object label="" id="uPvtzUqCq0j5UhJlTc7c-45">
          <ag_attributes />
          <ag_computed_attributes />
          <mxCell style="endArrow=classic;fontColor=#FEE599;startArrow=none;startFill=0;endFill=1;strokeWidth=2;strokeColor=#000000;" parent="1" source="uPvtzUqCq0j5UhJlTc7c-41" target="uPvtzUqCq0j5UhJlTc7c-57" edge="1">
            <mxGeometry width="50" height="50" relative="1" as="geometry">
              <mxPoint x="680" y="398" as="sourcePoint" />
              <mxPoint x="1044" y="410" as="targetPoint" />
            </mxGeometry>
          </mxCell>
        </object>
        <object label="" id="uPvtzUqCq0j5UhJlTc7c-46">
          <ag_attributes />
          <ag_computed_attributes />
          <mxCell style="endArrow=classic;fontColor=#FEE599;startArrow=none;startFill=0;endFill=1;strokeWidth=2;strokeColor=#000000;" parent="1" source="uPvtzUqCq0j5UhJlTc7c-42" target="uPvtzUqCq0j5UhJlTc7c-43" edge="1">
            <mxGeometry width="50" height="50" relative="1" as="geometry">
              <mxPoint x="1166.1538461538462" y="700" as="sourcePoint" />
              <mxPoint x="1077.8461538461538" y="618" as="targetPoint" />
            </mxGeometry>
          </mxCell>
        </object>
        <object label="Manipulate Luggage Destination" Resources="" Knowledge="" Location="" id="uPvtzUqCq0j5UhJlTc7c-47">
          <ag_attributes label="NaN" Resources="5" Knowledge="5" Location="1" _marking="uPvtzUqCq0j5UhJlTc7c-48" />
          <ag_computed_attributes fillColor="#40ff00" fontColor="#000000" value="1" />
          <ag_computed_attributes_function_reference ag_computed_attributes_function_reference="dbg60ff69g9a" />
          <ag_aggregation_function_reference ag_aggregation_function_reference="6b1d22791hih8" />
          <mxCell style="verticalAlign=top;align=center;fillColor=#FFFFFF;gradientColor=none;labelBackgroundColor=none;rounded=0;whiteSpace=wrap;shape=attackgraphs.node;spacingRight=20;" parent="1" vertex="1">
            <mxGeometry x="1210" y="560" width="180" height="60" as="geometry" />
          </mxCell>
        </object>
        <object id="eCq6edl6h6hgmWOPJE0u-19">
          <ag_attributes />
          <ag_computed_attributes />
          <mxCell style="edgeStyle=none;orthogonalLoop=1;jettySize=auto;html=1;strokeWidth=2;startArrow=diamondThin;startFill=1;endArrow=none;endFill=0;strokeColor=#000000;rounded=0;" parent="1" source="uPvtzUqCq0j5UhJlTc7c-48" target="eCq6edl6h6hgmWOPJE0u-9" edge="1">
            <mxGeometry relative="1" as="geometry">
              <Array as="points" />
            </mxGeometry>
          </mxCell>
        </object>
        <object id="eCq6edl6h6hgmWOPJE0u-20">
          <ag_attributes />
          <ag_computed_attributes />
          <mxCell style="edgeStyle=none;orthogonalLoop=1;jettySize=auto;html=1;strokeWidth=2;startArrow=diamondThin;startFill=1;endArrow=none;endFill=0;strokeColor=#000000;rounded=1;" parent="1" source="uPvtzUqCq0j5UhJlTc7c-48" target="eCq6edl6h6hgmWOPJE0u-18" edge="1">
            <mxGeometry relative="1" as="geometry">
              <Array as="points">
                <mxPoint x="1680" y="1360" />
              </Array>
            </mxGeometry>
          </mxCell>
        </object>
        <object label="GNSS Spoofing" Resources="3" Knowledge="3" Location="1" id="uPvtzUqCq0j5UhJlTc7c-48">
          <ag_attributes label="NaN" Resources="5" Knowledge="5" Location="1" />
          <ag_computed_attributes fillColor="#40ff00" fontColor="#000000" value="1" />
          <ag_computed_attributes_function_reference ag_computed_attributes_function_reference="dbg60ff69g9a" />
          <ag_aggregation_function_reference ag_aggregation_function_reference="73f575i0ghij5" />
          <mxCell style="verticalAlign=top;align=center;labelBackgroundColor=none;rounded=0;whiteSpace=wrap;fillColor=#D7E3BF;shape=attackgraphs.node;spacingRight=20;" parent="1" vertex="1">
            <mxGeometry x="930" y="760" width="180" height="60" as="geometry" />
          </mxCell>
        </object>
        <object label="" id="uPvtzUqCq0j5UhJlTc7c-49">
          <ag_attributes />
          <ag_computed_attributes />
          <mxCell style="endArrow=classic;fontColor=#FEE599;startArrow=none;startFill=0;endFill=1;strokeWidth=2;strokeColor=#000000;" parent="1" source="uPvtzUqCq0j5UhJlTc7c-40" target="uPvtzUqCq0j5UhJlTc7c-47" edge="1">
            <mxGeometry width="50" height="50" relative="1" as="geometry">
              <mxPoint x="1440" y="420" as="sourcePoint" />
              <mxPoint x="1240" y="450" as="targetPoint" />
            </mxGeometry>
          </mxCell>
        </object>
        <object label="" id="uPvtzUqCq0j5UhJlTc7c-50">
          <ag_attributes />
          <ag_computed_attributes />
          <mxCell style="endArrow=classic;fontColor=#FEE599;startArrow=none;startFill=0;endFill=1;strokeWidth=2;strokeColor=#000000;" parent="1" source="uPvtzUqCq0j5UhJlTc7c-40" target="uPvtzUqCq0j5UhJlTc7c-44" edge="1">
            <mxGeometry width="50" height="50" relative="1" as="geometry">
              <mxPoint x="1424" y="480" as="sourcePoint" />
              <mxPoint x="1810" y="440" as="targetPoint" />
            </mxGeometry>
          </mxCell>
        </object>
        <object label="" id="uPvtzUqCq0j5UhJlTc7c-51">
          <ag_attributes />
          <ag_computed_attributes />
          <mxCell style="endArrow=classic;fontColor=#FEE599;startArrow=none;startFill=0;endFill=1;strokeWidth=2;strokeColor=#000000;" parent="1" source="uPvtzUqCq0j5UhJlTc7c-47" target="uPvtzUqCq0j5UhJlTc7c-48" edge="1">
            <mxGeometry width="50" height="50" relative="1" as="geometry">
              <mxPoint x="1212" y="740" as="sourcePoint" />
              <mxPoint x="1442.6153846153848" y="618" as="targetPoint" />
            </mxGeometry>
          </mxCell>
        </object>
        <object label="3" id="uPvtzUqCq0j5UhJlTc7c-52">
          <ag_attributes />
          <ag_computed_attributes />
          <mxCell style="html=1;endArrow=classic;fontColor=#F000000;startArrow=none;startFill=0;endFill=1;strokeWidth=2;strokeColor=#000000;fontSize=15;" parent="1" source="uPvtzUqCq0j5UhJlTc7c-36" target="eCq6edl6h6hgmWOPJE0u-34" edge="1">
            <mxGeometry width="50" height="50" relative="1" as="geometry">
              <mxPoint x="1411.8461538461538" y="610" as="sourcePoint" />
              <mxPoint x="1220" y="360" as="targetPoint" />
            </mxGeometry>
          </mxCell>
        </object>
        <object label="2" id="uPvtzUqCq0j5UhJlTc7c-53">
          <ag_attributes />
          <ag_computed_attributes />
          <mxCell style="endArrow=classic;fontColor=#000000;startArrow=none;startFill=0;endFill=1;strokeWidth=2;strokeColor=#000000;fontSize=15;" parent="1" source="uPvtzUqCq0j5UhJlTc7c-38" target="uPvtzUqCq0j5UhJlTc7c-41" edge="1">
            <mxGeometry width="50" height="50" relative="1" as="geometry">
              <mxPoint x="680" y="320" as="sourcePoint" />
              <mxPoint x="1616.4" y="258" as="targetPoint" />
            </mxGeometry>
          </mxCell>
        </object>
        <object label="2" id="uPvtzUqCq0j5UhJlTc7c-54">
          <ag_attributes />
          <ag_computed_attributes />
          <mxCell style="endArrow=classic;fontColor=#000000;startArrow=none;startFill=0;endFill=1;strokeWidth=2;strokeColor=#000000;fontSize=15;" parent="1" source="uPvtzUqCq0j5UhJlTc7c-35" target="uPvtzUqCq0j5UhJlTc7c-41" edge="1">
            <mxGeometry width="50" height="50" relative="1" as="geometry">
              <mxPoint x="1040.88" y="360" as="sourcePoint" />
              <mxPoint x="1050" y="330" as="targetPoint" />
            </mxGeometry>
          </mxCell>
        </object>
        <object label="2" id="uPvtzUqCq0j5UhJlTc7c-55">
          <ag_attributes />
          <ag_computed_attributes />
          <mxCell style="endArrow=classic;fontColor=#F000000;startArrow=none;startFill=0;endFill=1;strokeWidth=2;fillColor=#000000;strokeColor=#000000;fontSize=15;html=1;" parent="1" source="uPvtzUqCq0j5UhJlTc7c-37" target="eCq6edl6h6hgmWOPJE0u-34" edge="1">
            <mxGeometry width="50" height="50" relative="1" as="geometry">
              <mxPoint x="1250" y="360" as="sourcePoint" />
              <mxPoint x="1400" y="350" as="targetPoint" />
            </mxGeometry>
          </mxCell>
        </object>
        <object label="2" id="uPvtzUqCq0j5UhJlTc7c-56">
          <ag_attributes />
          <ag_computed_attributes />
          <mxCell style="endArrow=classic;fontColor=#000000;startArrow=none;startFill=0;endFill=1;strokeWidth=2;strokeColor=#000000;fontSize=15;" parent="1" source="uPvtzUqCq0j5UhJlTc7c-37" target="uPvtzUqCq0j5UhJlTc7c-41" edge="1">
            <mxGeometry width="50" height="50" relative="1" as="geometry">
              <mxPoint x="1150" y="374" as="sourcePoint" />
              <mxPoint x="1356" y="258" as="targetPoint" />
            </mxGeometry>
          </mxCell>
        </object>
        <object label="Book unauthorized trips" Resources="" Knowledge="" Location="" id="uPvtzUqCq0j5UhJlTc7c-57">
          <ag_attributes label="NaN" Resources="4" Knowledge="4" Location="1" _marking="uPvtzUqCq0j5UhJlTc7c-43" />
          <ag_computed_attributes fillColor="#40ff00" fontColor="#000000" value="1" />
          <ag_computed_attributes_function_reference ag_computed_attributes_function_reference="dbg60ff69g9a" />
          <ag_aggregation_function_reference ag_aggregation_function_reference="6b1d22791hih8" />
          <mxCell style="verticalAlign=top;align=center;fillColor=#FFFFFF;gradientColor=none;labelBackgroundColor=none;rounded=0;whiteSpace=wrap;shape=attackgraphs.node;spacingRight=20;" parent="1" vertex="1">
            <mxGeometry x="-130" y="560" width="180" height="60" as="geometry" />
          </mxCell>
        </object>
        <object label="" id="uPvtzUqCq0j5UhJlTc7c-58">
          <ag_attributes />
          <ag_computed_attributes />
          <mxCell style="endArrow=classic;fontColor=#FEE599;startArrow=none;startFill=0;endFill=1;strokeWidth=2;strokeColor=#000000;" parent="1" source="uPvtzUqCq0j5UhJlTc7c-57" target="uPvtzUqCq0j5UhJlTc7c-43" edge="1">
            <mxGeometry width="50" height="50" relative="1" as="geometry">
              <mxPoint x="920.8571428571431" y="700" as="sourcePoint" />
              <mxPoint x="722" y="620" as="targetPoint" />
            </mxGeometry>
          </mxCell>
        </object>
        <object label="" id="uPvtzUqCq0j5UhJlTc7c-60">
          <ag_attributes />
          <ag_computed_attributes />
          <mxCell style="endArrow=classic;fontColor=#FEE599;startArrow=none;startFill=0;endFill=1;strokeWidth=2;strokeColor=#000000;" parent="1" source="uPvtzUqCq0j5UhJlTc7c-41" target="uPvtzUqCq0j5UhJlTc7c-42" edge="1">
            <mxGeometry width="50" height="50" relative="1" as="geometry">
              <mxPoint x="1060" y="390" as="sourcePoint" />
              <mxPoint x="1071.4925373134329" y="398" as="targetPoint" />
            </mxGeometry>
          </mxCell>
        </object>
        <object id="eCq6edl6h6hgmWOPJE0u-37">
          <ag_attributes />
          <ag_computed_attributes />
          <mxCell style="edgeStyle=none;orthogonalLoop=1;jettySize=auto;html=1;strokeWidth=2;startArrow=diamondThin;startFill=1;endArrow=none;endFill=0;strokeColor=#000000;curved=1;" parent="1" source="uPvtzUqCq0j5UhJlTc7c-61" target="eCq6edl6h6hgmWOPJE0u-21" edge="1">
            <mxGeometry relative="1" as="geometry">
              <Array as="points">
                <mxPoint x="710" y="1180" />
              </Array>
            </mxGeometry>
          </mxCell>
        </object>
        <object label="Maniputlate Ticket Control&#10;(cf. Contactless Ticket Control)" Resources="2" Knowledge="2" Location="0" id="uPvtzUqCq0j5UhJlTc7c-61">
          <ag_attributes label="NaN" Resources="4" Knowledge="5" Location="0" />
          <ag_computed_attributes fillColor="#40ff00" fontColor="#000000" value="1" />
          <ag_computed_attributes_function_reference ag_computed_attributes_function_reference="dbg60ff69g9a" />
          <ag_aggregation_function_reference ag_aggregation_function_reference="73f575i0ghij5" />
          <mxCell style="verticalAlign=top;align=center;fillColor=#FEE599;labelBackgroundColor=none;rounded=0;whiteSpace=wrap;strokeColor=#000000;shape=attackgraphs.node;spacingRight=20;" parent="1" vertex="1">
            <mxGeometry x="250.5" y="560" width="240" height="60" as="geometry" />
          </mxCell>
        </object>
        <object label="" id="uPvtzUqCq0j5UhJlTc7c-64">
          <ag_attributes />
          <ag_computed_attributes />
          <mxCell style="endArrow=classic;fontColor=#FEE599;startArrow=none;startFill=0;endFill=1;strokeWidth=2;strokeColor=#000000;" parent="1" source="uPvtzUqCq0j5UhJlTc7c-41" target="uPvtzUqCq0j5UhJlTc7c-61" edge="1">
            <mxGeometry width="50" height="50" relative="1" as="geometry">
              <mxPoint x="930" y="420" as="sourcePoint" />
              <mxPoint x="1035.6716417910447" y="398" as="targetPoint" />
            </mxGeometry>
          </mxCell>
        </object>
        <object label="Trigger voice activation" Resources="3" Knowledge="3" Location="0" id="uPvtzUqCq0j5UhJlTc7c-65">
          <ag_attributes label="NaN" Resources="4" Knowledge="4" Location="0" />
          <ag_computed_attributes fillColor="#d4ff00" fontColor="#000000" value="2" />
          <ag_computed_attributes_function_reference ag_computed_attributes_function_reference="dbg60ff69g9a" />
          <ag_aggregation_function_reference ag_aggregation_function_reference="73f575i0ghij5" />
          <mxCell style="verticalAlign=top;align=center;gradientColor=none;labelBackgroundColor=none;rounded=0;whiteSpace=wrap;fillColor=#D7E3BF;shape=attackgraphs.node;spacingRight=20;" parent="1" vertex="1">
            <mxGeometry x="-254" y="1000" width="180" height="60" as="geometry" />
          </mxCell>
        </object>
        <object label="" id="uPvtzUqCq0j5UhJlTc7c-66">
          <ag_attributes />
          <ag_computed_attributes />
          <mxCell style="endArrow=classic;fontColor=#FEE599;startArrow=none;startFill=0;endFill=1;exitX=0;exitY=0.25;exitDx=0;exitDy=0;exitPerimeter=0;strokeWidth=2;strokeColor=#000000;" parent="1" source="kVZn4hKlKfzOOjyC7Y9h-1" target="uPvtzUqCq0j5UhJlTc7c-65" edge="1">
            <mxGeometry width="50" height="50" relative="1" as="geometry">
              <mxPoint x="142.45161290322585" y="794" as="sourcePoint" />
              <mxPoint x="-79.25" y="960" as="targetPoint" />
            </mxGeometry>
          </mxCell>
        </object>
        <object label="Manipulate Smart Contracts" Resources="" Knowledge="" Location="" id="uPvtzUqCq0j5UhJlTc7c-67">
          <ag_attributes label="NaN" Resources="5" Knowledge="5" Location="0" _marking="Zh3dSjUnpUvwRO7Crw0d-17" />
          <ag_computed_attributes fillColor="#40ff00" fontColor="#000000" value="1" />
          <ag_computed_attributes_function_reference ag_computed_attributes_function_reference="dbg60ff69g9a" />
          <ag_aggregation_function_reference ag_aggregation_function_reference="6b1d22791hih8" />
          <mxCell style="verticalAlign=top;align=center;fillColor=#FFFFFF;gradientColor=none;labelBackgroundColor=none;rounded=0;whiteSpace=wrap;shape=attackgraphs.node;spacingRight=20;" parent="1" vertex="1">
            <mxGeometry x="901.5" y="360" width="180" height="60" as="geometry" />
          </mxCell>
        </object>
        <object label="3" id="uPvtzUqCq0j5UhJlTc7c-68">
          <ag_attributes />
          <ag_computed_attributes />
          <mxCell style="endArrow=classic;fontColor=#000000;startArrow=none;startFill=0;endFill=1;strokeWidth=2;strokeColor=#000000;fontSize=15;" parent="1" source="uPvtzUqCq0j5UhJlTc7c-36" target="uPvtzUqCq0j5UhJlTc7c-67" edge="1">
            <mxGeometry width="50" height="50" relative="1" as="geometry">
              <mxPoint x="1473.6" y="360" as="sourcePoint" />
              <mxPoint x="1740" y="300" as="targetPoint" />
            </mxGeometry>
          </mxCell>
        </object>
        <object label="3" id="uPvtzUqCq0j5UhJlTc7c-69">
          <ag_attributes />
          <ag_computed_attributes />
          <mxCell style="endArrow=classic;fontColor=#000000;startArrow=none;startFill=0;endFill=1;strokeWidth=2;strokeColor=#000000;fontSize=15;" parent="1" source="uPvtzUqCq0j5UhJlTc7c-37" target="uPvtzUqCq0j5UhJlTc7c-67" edge="1">
            <mxGeometry width="50" height="50" relative="1" as="geometry">
              <mxPoint x="1270" y="300" as="sourcePoint" />
              <mxPoint x="1653.1999999999998" y="258" as="targetPoint" />
            </mxGeometry>
          </mxCell>
        </object>
        <object id="eCq6edl6h6hgmWOPJE0u-11">
          <ag_attributes />
          <ag_computed_attributes />
          <mxCell style="edgeStyle=none;orthogonalLoop=1;jettySize=auto;html=1;strokeWidth=2;startArrow=diamondThin;startFill=1;endArrow=none;endFill=0;strokeColor=#000000;rounded=0;" parent="1" source="uPvtzUqCq0j5UhJlTc7c-70" target="eCq6edl6h6hgmWOPJE0u-9" edge="1">
            <mxGeometry relative="1" as="geometry">
              <Array as="points" />
            </mxGeometry>
          </mxCell>
        </object>
        <object id="eCq6edl6h6hgmWOPJE0u-13">
          <ag_attributes />
          <ag_computed_attributes />
          <mxCell style="edgeStyle=none;rounded=0;orthogonalLoop=1;jettySize=auto;html=1;strokeWidth=2;startArrow=diamondThin;startFill=1;endArrow=none;endFill=0;strokeColor=#000000;" parent="1" source="uPvtzUqCq0j5UhJlTc7c-70" target="eCq6edl6h6hgmWOPJE0u-7" edge="1">
            <mxGeometry relative="1" as="geometry" />
          </mxCell>
        </object>
        <object label="Manipulation of communication" Resources="3" Knowledge="3" Location="0" id="uPvtzUqCq0j5UhJlTc7c-70">
          <ag_attributes label="NaN" Resources="5" Knowledge="5" Location="1" />
          <ag_computed_attributes fillColor="#40ff00" fontColor="#000000" value="1" />
          <ag_computed_attributes_function_reference ag_computed_attributes_function_reference="dbg60ff69g9a" />
          <ag_aggregation_function_reference ag_aggregation_function_reference="73f575i0ghij5" />
          <mxCell style="verticalAlign=top;align=center;gradientColor=none;labelBackgroundColor=none;rounded=0;whiteSpace=wrap;fillColor=#FEE599;shape=attackgraphs.node;spacingRight=20;" parent="1" vertex="1">
            <mxGeometry x="1125.5" y="760" width="224" height="60" as="geometry" />
          </mxCell>
        </object>
        <object label="" id="uPvtzUqCq0j5UhJlTc7c-71">
          <ag_attributes />
          <ag_computed_attributes />
          <mxCell style="endArrow=classic;fontColor=#FEE599;startArrow=none;startFill=0;endFill=1;strokeWidth=2;strokeColor=#000000;" parent="1" source="uPvtzUqCq0j5UhJlTc7c-47" target="uPvtzUqCq0j5UhJlTc7c-70" edge="1">
            <mxGeometry width="50" height="50" relative="1" as="geometry">
              <mxPoint x="1485" y="760" as="sourcePoint" />
              <mxPoint x="1366.5783132530119" y="738" as="targetPoint" />
            </mxGeometry>
          </mxCell>
        </object>
        <object label="Manipulation of the data set" Resources="" Knowledge="" Location="" id="uPvtzUqCq0j5UhJlTc7c-72">
          <ag_attributes label="NaN" Resources="5" Knowledge="5" Location="1" _marking="kVZn4hKlKfzOOjyC7Y9h-11" />
          <ag_computed_attributes fillColor="#40ff00" fontColor="#000000" value="1" />
          <ag_computed_attributes_function_reference ag_computed_attributes_function_reference="dbg60ff69g9a" />
          <ag_aggregation_function_reference ag_aggregation_function_reference="6b1d22791hih8" />
          <mxCell style="verticalAlign=top;align=center;fillColor=#FFFFFF;gradientColor=none;labelBackgroundColor=none;rounded=0;whiteSpace=wrap;shape=attackgraphs.node;spacingRight=20;" parent="1" vertex="1">
            <mxGeometry x="1390" y="760" width="224" height="60" as="geometry" />
          </mxCell>
        </object>
        <object label="" id="uPvtzUqCq0j5UhJlTc7c-73">
          <ag_attributes />
          <ag_computed_attributes />
          <mxCell style="endArrow=classic;fontColor=#FEE599;startArrow=none;startFill=0;endFill=1;strokeWidth=2;strokeColor=#000000;" parent="1" source="uPvtzUqCq0j5UhJlTc7c-47" target="uPvtzUqCq0j5UhJlTc7c-72" edge="1">
            <mxGeometry width="50" height="50" relative="1" as="geometry">
              <mxPoint x="1172" y="728" as="sourcePoint" />
              <mxPoint x="1368.5060240963853" y="738" as="targetPoint" />
            </mxGeometry>
          </mxCell>
        </object>
        <object label="Play voice command" Resources="3" Knowledge="3" Location="0" id="PANx_2H3_iy-v-Putqux-1">
          <ag_attributes label="NaN" Resources="4" Knowledge="4" Location="0" />
          <ag_computed_attributes fillColor="#d4ff00" fontColor="#000000" value="2" />
          <ag_computed_attributes_function_reference ag_computed_attributes_function_reference="dbg60ff69g9a" />
          <ag_aggregation_function_reference ag_aggregation_function_reference="73f575i0ghij5" />
          <mxCell style="verticalAlign=top;align=center;gradientColor=none;labelBackgroundColor=none;rounded=0;whiteSpace=wrap;fillColor=#D7E3BF;shape=attackgraphs.node;spacingRight=20;" parent="1" vertex="1">
            <mxGeometry x="-64" y="1000" width="180" height="60" as="geometry" />
          </mxCell>
        </object>
        <object label="" id="PANx_2H3_iy-v-Putqux-3">
          <ag_attributes />
          <ag_computed_attributes />
          <mxCell style="endArrow=classic;fontColor=#FEE599;startArrow=none;startFill=0;endFill=1;exitX=0;exitY=0.75;exitDx=0;exitDy=0;exitPerimeter=0;strokeWidth=2;strokeColor=#000000;" parent="1" source="kVZn4hKlKfzOOjyC7Y9h-1" target="PANx_2H3_iy-v-Putqux-1" edge="1">
            <mxGeometry width="50" height="50" relative="1" as="geometry">
              <mxPoint x="117.1491712707184" y="1042" as="sourcePoint" />
              <mxPoint x="-58.75" y="960" as="targetPoint" />
            </mxGeometry>
          </mxCell>
        </object>
        <object label="" id="PANx_2H3_iy-v-Putqux-4">
          <ag_attributes />
          <ag_computed_attributes />
          <mxCell style="endArrow=classic;fontColor=#FEE599;startArrow=none;startFill=0;endFill=1;entryX=1;entryY=0.5;entryDx=0;entryDy=0;entryPerimeter=0;strokeWidth=2;strokeColor=#000000;" parent="1" source="uPvtzUqCq0j5UhJlTc7c-43" target="kVZn4hKlKfzOOjyC7Y9h-1" edge="1">
            <mxGeometry width="50" height="50" relative="1" as="geometry">
              <mxPoint x="773.1491712707184" y="1042" as="sourcePoint" />
              <mxPoint x="831.75" y="975.5" as="targetPoint" />
            </mxGeometry>
          </mxCell>
        </object>
        <object id="eCq6edl6h6hgmWOPJE0u-27">
          <ag_attributes />
          <ag_computed_attributes />
          <mxCell style="edgeStyle=none;rounded=0;orthogonalLoop=1;jettySize=auto;html=1;strokeWidth=2;startArrow=diamondThin;startFill=1;endArrow=none;endFill=0;strokeColor=#000000;" parent="1" source="PANx_2H3_iy-v-Putqux-5" target="eCq6edl6h6hgmWOPJE0u-26" edge="1">
            <mxGeometry relative="1" as="geometry">
              <mxPoint x="220" y="1080" as="sourcePoint" />
            </mxGeometry>
          </mxCell>
        </object>
        <object label="Manipulate Chatbot" Resources="2" Knowledge="2" Location="1" id="PANx_2H3_iy-v-Putqux-5">
          <ag_attributes label="NaN" Resources="4" Knowledge="4" Location="1" />
          <ag_computed_attributes fillColor="#40ff00" fontColor="#000000" value="1" />
          <ag_computed_attributes_function_reference ag_computed_attributes_function_reference="dbg60ff69g9a" />
          <ag_aggregation_function_reference ag_aggregation_function_reference="73f575i0ghij5" />
          <mxCell style="verticalAlign=top;align=center;gradientColor=none;labelBackgroundColor=none;rounded=0;whiteSpace=wrap;fillColor=#D7E3BF;shape=attackgraphs.node;spacingRight=20;" parent="1" vertex="1">
            <mxGeometry x="126" y="1000" width="180" height="60" as="geometry" />
          </mxCell>
        </object>
        <object id="eCq6edl6h6hgmWOPJE0u-28">
          <ag_attributes />
          <ag_computed_attributes />
          <mxCell style="edgeStyle=none;rounded=0;orthogonalLoop=1;jettySize=auto;html=1;strokeWidth=2;startArrow=diamondThin;startFill=1;endArrow=none;endFill=0;strokeColor=#000000;" parent="1" source="PANx_2H3_iy-v-Putqux-6" target="eCq6edl6h6hgmWOPJE0u-26" edge="1">
            <mxGeometry relative="1" as="geometry">
              <mxPoint x="400" y="1090" as="sourcePoint" />
            </mxGeometry>
          </mxCell>
        </object>
        <object label="Masquerade as Chatbot" Resources="3" Knowledge="3" Location="0" id="PANx_2H3_iy-v-Putqux-6">
          <ag_attributes label="NaN" Resources="5" Knowledge="5" Location="1" />
          <ag_computed_attributes fillColor="#40ff00" fontColor="#000000" value="1" />
          <ag_computed_attributes_function_reference ag_computed_attributes_function_reference="dbg60ff69g9a" />
          <ag_aggregation_function_reference ag_aggregation_function_reference="73f575i0ghij5" />
          <mxCell style="verticalAlign=top;align=center;gradientColor=none;labelBackgroundColor=none;rounded=0;whiteSpace=wrap;fillColor=#D7E3BF;shape=attackgraphs.node;spacingRight=20;" parent="1" vertex="1">
            <mxGeometry x="316" y="1000" width="180" height="60" as="geometry" />
          </mxCell>
        </object>
        <object label="" id="PANx_2H3_iy-v-Putqux-7">
          <ag_attributes />
          <ag_computed_attributes />
          <mxCell style="endArrow=classic;fontColor=#FEE599;startArrow=none;startFill=0;endFill=1;strokeWidth=2;strokeColor=#000000;" parent="1" source="uPvtzUqCq0j5UhJlTc7c-43" target="PANx_2H3_iy-v-Putqux-5" edge="1">
            <mxGeometry width="50" height="50" relative="1" as="geometry">
              <mxPoint x="777" y="945.5" as="sourcePoint" />
              <mxPoint x="844.0245398773004" y="888" as="targetPoint" />
            </mxGeometry>
          </mxCell>
        </object>
        <object label="" id="PANx_2H3_iy-v-Putqux-8">
          <ag_attributes />
          <ag_computed_attributes />
          <mxCell style="endArrow=classic;fontColor=#FEE599;startArrow=none;startFill=0;endFill=1;strokeWidth=2;strokeColor=#000000;" parent="1" source="uPvtzUqCq0j5UhJlTc7c-43" target="PANx_2H3_iy-v-Putqux-6" edge="1">
            <mxGeometry width="50" height="50" relative="1" as="geometry">
              <mxPoint x="1073.6289156626508" y="1047.5" as="sourcePoint" />
              <mxPoint x="898.3710843373492" y="888" as="targetPoint" />
            </mxGeometry>
          </mxCell>
        </object>
        <object label="Feed in manipulated data" Resources="3" Knowledge="3" Location="0" id="PANx_2H3_iy-v-Putqux-9">
          <ag_attributes label="NaN" Resources="5" Knowledge="5" Location="1" />
          <ag_computed_attributes fillColor="#40ff00" fontColor="#000000" value="1" />
          <ag_computed_attributes_function_reference ag_computed_attributes_function_reference="dbg60ff69g9a" />
          <ag_aggregation_function_reference ag_aggregation_function_reference="73f575i0ghij5" />
          <mxCell style="whiteSpace=wrap;rounded=0;fillColor=#D7E3BF;strokeColor=#000000;shape=attackgraphs.node;spacingRight=20;verticalAlign=top;" parent="1" vertex="1">
            <mxGeometry x="-436.5" y="1360" width="150" height="60" as="geometry" />
          </mxCell>
        </object>
        <object label="" id="PANx_2H3_iy-v-Putqux-10">
          <ag_attributes />
          <ag_computed_attributes />
          <mxCell style="endArrow=classic;fontColor=#FEE599;exitX=0;exitY=0.75;exitDx=0;exitDy=0;startArrow=none;startFill=0;endFill=1;exitPerimeter=0;strokeWidth=2;spacingRight=20;verticalAlign=top;strokeColor=#000000;" parent="1" source="kVZn4hKlKfzOOjyC7Y9h-2" target="PANx_2H3_iy-v-Putqux-9" edge="1">
            <mxGeometry width="50" height="50" relative="1" as="geometry">
              <mxPoint x="632" y="1140" as="sourcePoint" />
              <mxPoint x="597" y="1288" as="targetPoint" />
            </mxGeometry>
          </mxCell>
        </object>
        <object label="Manipulation of the data set" Resources="" Knowledge="" Location="" id="PANx_2H3_iy-v-Putqux-11">
          <ag_attributes label="NaN" Resources="5" Knowledge="5" Location="1" _marking="PANx_2H3_iy-v-Putqux-31" />
          <ag_computed_attributes fillColor="#40ff00" fontColor="#000000" value="1" />
          <ag_computed_attributes_function_reference ag_computed_attributes_function_reference="dbg60ff69g9a" />
          <ag_aggregation_function_reference ag_aggregation_function_reference="6b1d22791hih8" />
          <mxCell style="verticalAlign=top;align=center;fillColor=#FFFFFF;gradientColor=none;labelBackgroundColor=none;rounded=0;whiteSpace=wrap;shape=attackgraphs.node;spacingRight=20;" parent="1" vertex="1">
            <mxGeometry x="-486.5" y="1000" width="224" height="60" as="geometry" />
          </mxCell>
        </object>
        <object label="" id="PANx_2H3_iy-v-Putqux-12">
          <ag_attributes />
          <ag_computed_attributes />
          <mxCell style="endArrow=classic;fontColor=#FEE599;startArrow=none;startFill=0;endFill=1;strokeWidth=2;strokeColor=#000000;" parent="1" source="uPvtzUqCq0j5UhJlTc7c-43" target="PANx_2H3_iy-v-Putqux-11" edge="1">
            <mxGeometry width="50" height="50" relative="1" as="geometry">
              <mxPoint x="1398.3614457831327" y="1003" as="sourcePoint" />
              <mxPoint x="1278.4580152671756" y="910" as="targetPoint" />
            </mxGeometry>
          </mxCell>
        </object>
        <object id="eCq6edl6h6hgmWOPJE0u-30">
          <ag_attributes />
          <ag_computed_attributes />
          <mxCell style="edgeStyle=none;rounded=0;orthogonalLoop=1;jettySize=auto;html=1;strokeWidth=2;startArrow=diamondThin;startFill=1;endArrow=none;endFill=0;strokeColor=#000000;" parent="1" source="PANx_2H3_iy-v-Putqux-14" target="eCq6edl6h6hgmWOPJE0u-29" edge="1">
            <mxGeometry relative="1" as="geometry">
              <mxPoint x="623" y="1320" as="sourcePoint" />
            </mxGeometry>
          </mxCell>
        </object>
        <object label="Use of unusable data" Resources="2" Knowledge="2" Location="1" id="PANx_2H3_iy-v-Putqux-14">
          <ag_attributes label="NaN" Resources="5" Knowledge="5" Location="1" />
          <ag_computed_attributes fillColor="#40ff00" fontColor="#000000" value="1" />
          <ag_computed_attributes_function_reference ag_computed_attributes_function_reference="dbg60ff69g9a" />
          <ag_aggregation_function_reference ag_aggregation_function_reference="73f575i0ghij5" />
          <mxCell style="whiteSpace=wrap;rounded=0;fillColor=#D7E3BF;strokeColor=#000000;shape=attackgraphs.node;verticalAlign=top;spacingRight=20;" parent="1" vertex="1">
            <mxGeometry x="544" y="1240" width="150" height="60" as="geometry" />
          </mxCell>
        </object>
        <object id="eCq6edl6h6hgmWOPJE0u-31">
          <ag_attributes />
          <ag_computed_attributes />
          <mxCell style="edgeStyle=none;rounded=0;orthogonalLoop=1;jettySize=auto;html=1;strokeWidth=2;startArrow=diamondThin;startFill=1;endArrow=none;endFill=0;strokeColor=#000000;" parent="1" source="PANx_2H3_iy-v-Putqux-15" target="eCq6edl6h6hgmWOPJE0u-29" edge="1">
            <mxGeometry relative="1" as="geometry">
              <mxPoint x="760" y="1320" as="sourcePoint" />
            </mxGeometry>
          </mxCell>
        </object>
        <object label="input wrong, inaccurate algorithms" Resources="3" Knowledge="3" Location="1" id="PANx_2H3_iy-v-Putqux-15">
          <ag_attributes label="NaN" Resources="5" Knowledge="5" Location="1" />
          <ag_computed_attributes fillColor="#40ff00" fontColor="#000000" value="1" />
          <ag_computed_attributes_function_reference ag_computed_attributes_function_reference="dbg60ff69g9a" />
          <ag_aggregation_function_reference ag_aggregation_function_reference="73f575i0ghij5" />
          <mxCell style="whiteSpace=wrap;rounded=0;fillColor=#D7E3BF;strokeColor=#000000;shape=attackgraphs.node;verticalAlign=top;spacingRight=20;" parent="1" vertex="1">
            <mxGeometry x="712" y="1240" width="150" height="60" as="geometry" />
          </mxCell>
        </object>
        <object label="" id="PANx_2H3_iy-v-Putqux-16">
          <ag_attributes />
          <ag_computed_attributes />
          <mxCell style="edgeStyle=none;rounded=0;orthogonalLoop=1;jettySize=auto;endArrow=classic;endFill=1;strokeWidth=2;strokeColor=#000000;" parent="1" source="PANx_2H3_iy-v-Putqux-13" target="PANx_2H3_iy-v-Putqux-14" edge="1">
            <mxGeometry relative="1" as="geometry">
              <mxPoint x="620" y="934.5" as="sourcePoint" />
              <mxPoint x="725" y="1184.5" as="targetPoint" />
            </mxGeometry>
          </mxCell>
        </object>
        <object label="" id="PANx_2H3_iy-v-Putqux-17">
          <ag_attributes />
          <ag_computed_attributes />
          <mxCell style="edgeStyle=none;rounded=0;orthogonalLoop=1;jettySize=auto;endArrow=classic;endFill=1;strokeWidth=2;strokeColor=#000000;" parent="1" source="PANx_2H3_iy-v-Putqux-13" target="PANx_2H3_iy-v-Putqux-15" edge="1">
            <mxGeometry relative="1" as="geometry">
              <mxPoint x="815" y="1074.5" as="sourcePoint" />
              <mxPoint x="735" y="1194.5" as="targetPoint" />
            </mxGeometry>
          </mxCell>
        </object>
        <object label="" id="PANx_2H3_iy-v-Putqux-18">
          <ag_attributes />
          <ag_computed_attributes />
          <mxCell style="edgeStyle=none;rounded=0;orthogonalLoop=1;jettySize=auto;entryX=0.5;entryY=0;entryDx=0;entryDy=0;endArrow=classic;endFill=1;strokeWidth=2;strokeColor=#000000;" parent="1" source="uPvtzUqCq0j5UhJlTc7c-43" target="PANx_2H3_iy-v-Putqux-13" edge="1">
            <mxGeometry relative="1" as="geometry">
              <mxPoint x="1361" y="1060" as="sourcePoint" />
              <mxPoint x="1352" y="990" as="targetPoint" />
            </mxGeometry>
          </mxCell>
        </object>
        <object label="Gain Access Data Center local" Resources="3" Knowledge="3" Location="1" id="PANx_2H3_iy-v-Putqux-19">
          <ag_attributes label="NaN" Resources="4" Knowledge="4" Location="1" />
          <ag_computed_attributes fillColor="#40ff00" fontColor="#000000" value="1" />
          <ag_computed_attributes_function_reference ag_computed_attributes_function_reference="dbg60ff69g9a" />
          <ag_aggregation_function_reference ag_aggregation_function_reference="73f575i0ghij5" />
          <mxCell style="whiteSpace=wrap;rounded=0;fillColor=#D7E3BF;strokeColor=#000000;shape=attackgraphs.node;spacingRight=20;verticalAlign=top;" parent="1" vertex="1">
            <mxGeometry x="-780" y="1360" width="150" height="60" as="geometry" />
          </mxCell>
        </object>
        <object label="Gain Access Data Center remote" Resources="3" Knowledge="3" Location="0" id="PANx_2H3_iy-v-Putqux-20">
          <ag_attributes label="NaN" Resources="4" Knowledge="4" Location="0" />
          <ag_computed_attributes fillColor="#d4ff00" fontColor="#000000" value="2" />
          <ag_computed_attributes_function_reference ag_computed_attributes_function_reference="dbg60ff69g9a" />
          <ag_aggregation_function_reference ag_aggregation_function_reference="73f575i0ghij5" />
          <mxCell style="whiteSpace=wrap;rounded=0;fillColor=#D7E3BF;strokeColor=#000000;shape=attackgraphs.node;spacingRight=20;verticalAlign=top;" parent="1" vertex="1">
            <mxGeometry x="-608" y="1360" width="150" height="60" as="geometry" />
          </mxCell>
        </object>
        <object label="" id="PANx_2H3_iy-v-Putqux-22">
          <ag_attributes />
          <ag_computed_attributes />
          <mxCell style="edgeStyle=none;rounded=0;orthogonalLoop=1;jettySize=auto;entryX=1;entryY=0.5;entryDx=0;entryDy=0;entryPerimeter=0;jumpStyle=arc;exitX=0;exitY=0.25;exitDx=0;exitDy=0;exitPerimeter=0;endArrow=classic;endFill=1;strokeWidth=2;spacingRight=20;verticalAlign=top;strokeColor=#000000;" parent="1" source="kVZn4hKlKfzOOjyC7Y9h-2" target="kVZn4hKlKfzOOjyC7Y9h-3" edge="1">
            <mxGeometry relative="1" as="geometry">
              <mxPoint x="476" y="1270" as="sourcePoint" />
              <mxPoint x="292" y="1336" as="targetPoint" />
            </mxGeometry>
          </mxCell>
        </object>
        <object label="" id="PANx_2H3_iy-v-Putqux-24">
          <ag_attributes />
          <ag_computed_attributes />
          <mxCell style="edgeStyle=none;rounded=0;orthogonalLoop=1;jettySize=auto;exitX=0.175;exitY=0.25;exitDx=0;exitDy=0;exitPerimeter=0;jumpStyle=arc;endArrow=classic;endFill=1;strokeWidth=2;spacingRight=20;verticalAlign=top;strokeColor=#000000;" parent="1" source="kVZn4hKlKfzOOjyC7Y9h-3" target="PANx_2H3_iy-v-Putqux-19" edge="1">
            <mxGeometry relative="1" as="geometry">
              <mxPoint x="221" y="1342" as="sourcePoint" />
              <mxPoint x="260" y="1369.5" as="targetPoint" />
            </mxGeometry>
          </mxCell>
        </object>
        <object label="" id="PANx_2H3_iy-v-Putqux-25">
          <ag_attributes />
          <ag_computed_attributes />
          <mxCell style="edgeStyle=none;rounded=0;orthogonalLoop=1;jettySize=auto;exitX=0.175;exitY=0.75;exitDx=0;exitDy=0;exitPerimeter=0;jumpStyle=arc;endArrow=classic;endFill=1;strokeWidth=2;spacingRight=20;verticalAlign=top;strokeColor=#000000;" parent="1" source="kVZn4hKlKfzOOjyC7Y9h-3" target="PANx_2H3_iy-v-Putqux-20" edge="1">
            <mxGeometry relative="1" as="geometry">
              <mxPoint x="253.75" y="1386" as="sourcePoint" />
              <mxPoint x="288.63924050632886" y="1435" as="targetPoint" />
            </mxGeometry>
          </mxCell>
        </object>
        <object label="Feed in additional manipulated &quot;experience&quot;" Resources="" Knowledge="" Location="" id="PANx_2H3_iy-v-Putqux-29">
          <ag_attributes label="NaN" Resources="5" Knowledge="5" Location="1" _marking="kVZn4hKlKfzOOjyC7Y9h-2" />
          <ag_computed_attributes fillColor="#40ff00" fontColor="#000000" value="1" />
          <ag_computed_attributes_function_reference ag_computed_attributes_function_reference="dbg60ff69g9a" />
          <ag_aggregation_function_reference ag_aggregation_function_reference="6b1d22791hih8" />
          <mxCell style="whiteSpace=wrap;rounded=0;shape=attackgraphs.node;spacingRight=20;verticalAlign=top;" parent="1" vertex="1">
            <mxGeometry x="-590" y="1158.75" width="216.5" height="60" as="geometry" />
          </mxCell>
        </object>
        <object label="Manipulation of Test Cases" Resources="" Knowledge="" Location="" id="PANx_2H3_iy-v-Putqux-30">
          <ag_attributes label="NaN" Resources="5" Knowledge="5" Location="1" _marking="kVZn4hKlKfzOOjyC7Y9h-8" />
          <ag_computed_attributes fillColor="#40ff00" fontColor="#000000" value="1" />
          <ag_computed_attributes_function_reference ag_computed_attributes_function_reference="dbg60ff69g9a" />
          <ag_aggregation_function_reference ag_aggregation_function_reference="6b1d22791hih8" />
          <mxCell style="whiteSpace=wrap;rounded=0;shape=attackgraphs.node;verticalAlign=top;spacingRight=20;" parent="1" vertex="1">
            <mxGeometry x="932" y="1000" width="150" height="60" as="geometry" />
          </mxCell>
        </object>
        <object label="Manipulation of labels of the &quot;correct&quot; data" Resources="" Knowledge="" Location="" id="PANx_2H3_iy-v-Putqux-31">
          <ag_attributes label="NaN" Resources="5" Knowledge="5" Location="1" _marking="kVZn4hKlKfzOOjyC7Y9h-5" />
          <ag_computed_attributes fillColor="#40ff00" fontColor="#000000" value="1" />
          <ag_computed_attributes_function_reference ag_computed_attributes_function_reference="dbg60ff69g9a" />
          <ag_aggregation_function_reference ag_aggregation_function_reference="6b1d22791hih8" />
          <mxCell style="whiteSpace=wrap;rounded=0;shape=attackgraphs.node;spacingRight=20;verticalAlign=top;" parent="1" vertex="1">
            <mxGeometry x="-366.5" y="1158.75" width="156.5" height="60" as="geometry" />
          </mxCell>
        </object>
        <object label="Feed in manipulated data" Resources="3" Knowledge="3" Location="0" id="PANx_2H3_iy-v-Putqux-32">
          <ag_attributes label="NaN" Resources="5" Knowledge="5" Location="1" />
          <ag_computed_attributes fillColor="#40ff00" fontColor="#000000" value="1" />
          <ag_computed_attributes_function_reference ag_computed_attributes_function_reference="dbg60ff69g9a" />
          <ag_aggregation_function_reference ag_aggregation_function_reference="73f575i0ghij5" />
          <mxCell style="whiteSpace=wrap;rounded=0;fillColor=#D7E3BF;strokeColor=#000000;shape=attackgraphs.node;verticalAlign=top;spacingRight=20;" parent="1" vertex="1">
            <mxGeometry x="1216" y="1240" width="150" height="60" as="geometry" />
          </mxCell>
        </object>
        <object label="" id="PANx_2H3_iy-v-Putqux-33">
          <ag_attributes />
          <ag_computed_attributes />
          <mxCell style="endArrow=classic;fontColor=#FEE599;startArrow=none;startFill=0;endFill=1;exitX=0;exitY=0.75;exitDx=0;exitDy=0;exitPerimeter=0;strokeWidth=2;strokeColor=#000000;" parent="1" source="kVZn4hKlKfzOOjyC7Y9h-8" target="PANx_2H3_iy-v-Putqux-32" edge="1">
            <mxGeometry width="50" height="50" relative="1" as="geometry">
              <mxPoint x="1396" y="1120" as="sourcePoint" />
              <mxPoint x="1253" y="898" as="targetPoint" />
            </mxGeometry>
          </mxCell>
        </object>
        <object label="Gain Access Data Center local" Resources="3" Knowledge="3" Location="1" id="PANx_2H3_iy-v-Putqux-34">
          <ag_attributes label="NaN" Resources="3" Knowledge="3" Location="1" />
          <ag_computed_attributes fillColor="#ffdd00" fontColor="#000000" value="3" />
          <ag_computed_attributes_function_reference ag_computed_attributes_function_reference="dbg60ff69g9a" />
          <ag_aggregation_function_reference ag_aggregation_function_reference="73f575i0ghij5" />
          <mxCell style="whiteSpace=wrap;rounded=0;fillColor=#D7E3BF;strokeColor=#000000;shape=attackgraphs.node;verticalAlign=top;spacingRight=20;" parent="1" vertex="1">
            <mxGeometry x="880" y="1240" width="150" height="60" as="geometry" />
          </mxCell>
        </object>
        <object label="Gain Access Data Center remote" Resources="3" Knowledge="3" Location="0" id="PANx_2H3_iy-v-Putqux-35">
          <ag_attributes label="NaN" Resources="3" Knowledge="3" Location="0" />
          <ag_computed_attributes fillColor="#ff4000" fontColor="#ffffff" value="4" />
          <ag_computed_attributes_function_reference ag_computed_attributes_function_reference="dbg60ff69g9a" />
          <ag_aggregation_function_reference ag_aggregation_function_reference="73f575i0ghij5" />
          <mxCell style="whiteSpace=wrap;rounded=0;fillColor=#D7E3BF;strokeColor=#000000;shape=attackgraphs.node;verticalAlign=top;spacingRight=20;" parent="1" vertex="1">
            <mxGeometry x="1048" y="1240" width="150" height="60" as="geometry" />
          </mxCell>
        </object>
        <object label="" id="PANx_2H3_iy-v-Putqux-39">
          <ag_attributes />
          <ag_computed_attributes />
          <mxCell style="edgeStyle=none;rounded=0;orthogonalLoop=1;jettySize=auto;exitX=0.175;exitY=0.25;exitDx=0;exitDy=0;exitPerimeter=0;jumpStyle=arc;endArrow=classic;endFill=1;strokeWidth=2;strokeColor=#000000;" parent="1" source="kVZn4hKlKfzOOjyC7Y9h-9" target="PANx_2H3_iy-v-Putqux-34" edge="1">
            <mxGeometry relative="1" as="geometry">
              <mxPoint x="927" y="1152" as="sourcePoint" />
              <mxPoint x="966" y="1179.5" as="targetPoint" />
            </mxGeometry>
          </mxCell>
        </object>
        <object label="" id="PANx_2H3_iy-v-Putqux-40">
          <ag_attributes />
          <ag_computed_attributes />
          <mxCell style="edgeStyle=none;rounded=0;orthogonalLoop=1;jettySize=auto;exitX=0.175;exitY=0.75;exitDx=0;exitDy=0;exitPerimeter=0;jumpStyle=arc;endArrow=classic;endFill=1;strokeWidth=2;strokeColor=#000000;" parent="1" source="kVZn4hKlKfzOOjyC7Y9h-9" target="PANx_2H3_iy-v-Putqux-35" edge="1">
            <mxGeometry relative="1" as="geometry">
              <mxPoint x="959.75" y="1196" as="sourcePoint" />
              <mxPoint x="994.6392405063289" y="1245" as="targetPoint" />
            </mxGeometry>
          </mxCell>
        </object>
        <object label="" id="PANx_2H3_iy-v-Putqux-41">
          <ag_attributes />
          <ag_computed_attributes />
          <mxCell style="edgeStyle=none;rounded=0;orthogonalLoop=1;jettySize=auto;entryX=1;entryY=0.5;entryDx=0;entryDy=0;entryPerimeter=0;jumpStyle=arc;strokeWidth=2;strokeColor=#000000;" parent="1" source="PANx_2H3_iy-v-Putqux-30" target="kVZn4hKlKfzOOjyC7Y9h-8" edge="1">
            <mxGeometry relative="1" as="geometry">
              <mxPoint x="1378" y="1048" as="sourcePoint" />
              <mxPoint x="1144" y="1192.5" as="targetPoint" />
            </mxGeometry>
          </mxCell>
        </object>
        <object label="" id="PANx_2H3_iy-v-Putqux-43">
          <ag_attributes />
          <ag_computed_attributes />
          <mxCell style="edgeStyle=none;rounded=0;orthogonalLoop=1;jettySize=auto;entryX=0.408;entryY=-0.008;entryDx=0;entryDy=0;entryPerimeter=0;jumpStyle=arc;endArrow=classic;endFill=1;strokeWidth=2;strokeColor=#000000;" parent="1" source="uPvtzUqCq0j5UhJlTc7c-43" target="PANx_2H3_iy-v-Putqux-30" edge="1">
            <mxGeometry relative="1" as="geometry">
              <mxPoint x="1336" y="1053.953781512605" as="sourcePoint" />
              <mxPoint x="1514" y="1082" as="targetPoint" />
            </mxGeometry>
          </mxCell>
        </object>
        <object label="" id="PANx_2H3_iy-v-Putqux-44">
          <ag_attributes />
          <ag_computed_attributes />
          <mxCell style="edgeStyle=none;rounded=0;orthogonalLoop=1;jettySize=auto;jumpStyle=arc;endArrow=classic;endFill=1;strokeWidth=2;strokeColor=#000000;" parent="1" source="PANx_2H3_iy-v-Putqux-11" target="PANx_2H3_iy-v-Putqux-31" edge="1">
            <mxGeometry relative="1" as="geometry">
              <mxPoint x="734.865217970937" y="888" as="sourcePoint" />
              <mxPoint x="1064.96" y="1014.02" as="targetPoint" />
            </mxGeometry>
          </mxCell>
        </object>
        <object label="" id="PANx_2H3_iy-v-Putqux-45">
          <ag_attributes />
          <ag_computed_attributes />
          <mxCell style="edgeStyle=none;rounded=0;orthogonalLoop=1;jettySize=auto;jumpStyle=arc;endArrow=classic;endFill=1;strokeWidth=2;strokeColor=#000000;" parent="1" source="PANx_2H3_iy-v-Putqux-11" target="PANx_2H3_iy-v-Putqux-29" edge="1">
            <mxGeometry relative="1" as="geometry">
              <mxPoint x="637.7142857142858" y="1062.5" as="sourcePoint" />
              <mxPoint x="664.8571428571427" y="1110" as="targetPoint" />
            </mxGeometry>
          </mxCell>
        </object>
        <object label="Feed in manipulated data" Resources="3" Knowledge="3" Location="0" id="PANx_2H3_iy-v-Putqux-46">
          <ag_attributes label="NaN" Resources="5" Knowledge="5" Location="1" />
          <ag_computed_attributes fillColor="#40ff00" fontColor="#000000" value="1" />
          <ag_computed_attributes_function_reference ag_computed_attributes_function_reference="dbg60ff69g9a" />
          <ag_aggregation_function_reference ag_aggregation_function_reference="73f575i0ghij5" />
          <mxCell style="whiteSpace=wrap;rounded=0;fillColor=#D7E3BF;strokeColor=#000000;shape=attackgraphs.node;verticalAlign=top;spacingRight=20;" parent="1" vertex="1">
            <mxGeometry x="1645" y="1000" width="150" height="60" as="geometry" />
          </mxCell>
        </object>
        <object label="" id="PANx_2H3_iy-v-Putqux-47">
          <ag_attributes />
          <ag_computed_attributes />
          <mxCell style="endArrow=classic;fontColor=#FEE599;startArrow=none;startFill=0;endFill=1;exitX=0;exitY=0.75;exitDx=0;exitDy=0;exitPerimeter=0;strokeWidth=2;strokeColor=#000000;" parent="1" source="kVZn4hKlKfzOOjyC7Y9h-11" target="PANx_2H3_iy-v-Putqux-46" edge="1">
            <mxGeometry width="50" height="50" relative="1" as="geometry">
              <mxPoint x="1162" y="909" as="sourcePoint" />
              <mxPoint x="1352" y="889" as="targetPoint" />
            </mxGeometry>
          </mxCell>
        </object>
        <object label="Gain Access Data Center local" Resources="3" Knowledge="3" Location="1" id="PANx_2H3_iy-v-Putqux-48">
          <ag_attributes label="NaN" Resources="3" Knowledge="3" Location="1" />
          <ag_computed_attributes fillColor="#ffdd00" fontColor="#000000" value="3" />
          <ag_computed_attributes_function_reference ag_computed_attributes_function_reference="dbg60ff69g9a" />
          <ag_aggregation_function_reference ag_aggregation_function_reference="73f575i0ghij5" />
          <mxCell style="whiteSpace=wrap;rounded=0;fillColor=#D7E3BF;strokeColor=#000000;shape=attackgraphs.node;verticalAlign=top;spacingRight=20;" parent="1" vertex="1">
            <mxGeometry x="1320" y="1000" width="150" height="60" as="geometry" />
          </mxCell>
        </object>
        <object label="Gain Access Data Center remote" Resources="3" Knowledge="3" Location="0" id="PANx_2H3_iy-v-Putqux-49">
          <ag_attributes label="NaN" Resources="3" Knowledge="3" Location="0" />
          <ag_computed_attributes fillColor="#ff4000" fontColor="#ffffff" value="4" />
          <ag_computed_attributes_function_reference ag_computed_attributes_function_reference="dbg60ff69g9a" />
          <ag_aggregation_function_reference ag_aggregation_function_reference="73f575i0ghij5" />
          <mxCell style="whiteSpace=wrap;rounded=0;fillColor=#D7E3BF;strokeColor=#000000;shape=attackgraphs.node;verticalAlign=top;spacingRight=20;" parent="1" vertex="1">
            <mxGeometry x="1479" y="1000" width="150" height="60" as="geometry" />
          </mxCell>
        </object>
        <object label="" id="PANx_2H3_iy-v-Putqux-53">
          <ag_attributes />
          <ag_computed_attributes />
          <mxCell style="edgeStyle=none;rounded=0;orthogonalLoop=1;jettySize=auto;exitX=0.175;exitY=0.25;exitDx=0;exitDy=0;exitPerimeter=0;jumpStyle=arc;endArrow=classic;endFill=1;strokeWidth=2;strokeColor=#000000;" parent="1" source="kVZn4hKlKfzOOjyC7Y9h-12" target="PANx_2H3_iy-v-Putqux-48" edge="1">
            <mxGeometry relative="1" as="geometry">
              <mxPoint x="1123" y="976" as="sourcePoint" />
              <mxPoint x="1162" y="1003.5" as="targetPoint" />
            </mxGeometry>
          </mxCell>
        </object>
        <object label="" id="PANx_2H3_iy-v-Putqux-54">
          <ag_attributes />
          <ag_computed_attributes />
          <mxCell style="edgeStyle=none;rounded=0;orthogonalLoop=1;jettySize=auto;jumpStyle=arc;endArrow=classic;endFill=1;strokeWidth=2;exitX=0.175;exitY=0.75;exitDx=0;exitDy=0;exitPerimeter=0;strokeColor=#000000;" parent="1" source="kVZn4hKlKfzOOjyC7Y9h-12" target="PANx_2H3_iy-v-Putqux-49" edge="1">
            <mxGeometry relative="1" as="geometry">
              <mxPoint x="1362" y="977" as="sourcePoint" />
              <mxPoint x="1190.6392405063289" y="1069" as="targetPoint" />
            </mxGeometry>
          </mxCell>
        </object>
        <object label="" id="PANx_2H3_iy-v-Putqux-56">
          <ag_attributes />
          <ag_computed_attributes />
          <mxCell style="edgeStyle=none;rounded=0;orthogonalLoop=1;jettySize=auto;jumpStyle=arc;endArrow=classic;endFill=1;strokeWidth=2;strokeColor=#000000;" parent="1" source="uPvtzUqCq0j5UhJlTc7c-72" target="kVZn4hKlKfzOOjyC7Y9h-11" edge="1">
            <mxGeometry relative="1" as="geometry">
              <mxPoint x="1336" y="1014.453781512605" as="sourcePoint" />
              <mxPoint x="1310.5" y="830" as="targetPoint" />
            </mxGeometry>
          </mxCell>
        </object>
        <object label="" id="Zh3dSjUnpUvwRO7Crw0d-4">
          <ag_attributes />
          <ag_computed_attributes />
          <mxCell style="endArrow=classic;fontColor=#FEE599;exitX=0;exitY=0.75;exitDx=0;exitDy=0;startArrow=none;startFill=0;endFill=1;exitPerimeter=0;strokeWidth=2;spacingRight=20;verticalAlign=top;strokeColor=#000000;" parent="1" source="kVZn4hKlKfzOOjyC7Y9h-5" target="Zh3dSjUnpUvwRO7Crw0d-3" edge="1">
            <mxGeometry width="50" height="50" relative="1" as="geometry">
              <mxPoint x="1058" y="1227" as="sourcePoint" />
              <mxPoint x="1023" y="1375" as="targetPoint" />
            </mxGeometry>
          </mxCell>
        </object>
        <object label="" id="Zh3dSjUnpUvwRO7Crw0d-10">
          <ag_attributes />
          <ag_computed_attributes />
          <mxCell style="edgeStyle=none;rounded=0;orthogonalLoop=1;jettySize=auto;exitX=0.175;exitY=0.25;exitDx=0;exitDy=0;exitPerimeter=0;jumpStyle=arc;endArrow=classic;endFill=1;strokeWidth=2;spacingRight=20;verticalAlign=top;strokeColor=#000000;" parent="1" source="kVZn4hKlKfzOOjyC7Y9h-6" target="Zh3dSjUnpUvwRO7Crw0d-5" edge="1">
            <mxGeometry relative="1" as="geometry">
              <mxPoint x="647" y="1429" as="sourcePoint" />
              <mxPoint x="686" y="1456.5" as="targetPoint" />
            </mxGeometry>
          </mxCell>
        </object>
        <object label="" id="Zh3dSjUnpUvwRO7Crw0d-11">
          <ag_attributes />
          <ag_computed_attributes />
          <mxCell style="edgeStyle=none;rounded=0;orthogonalLoop=1;jettySize=auto;exitX=0.175;exitY=0.75;exitDx=0;exitDy=0;exitPerimeter=0;jumpStyle=arc;endArrow=classic;endFill=1;strokeWidth=2;spacingRight=20;verticalAlign=top;strokeColor=#000000;" parent="1" source="kVZn4hKlKfzOOjyC7Y9h-6" target="Zh3dSjUnpUvwRO7Crw0d-6" edge="1">
            <mxGeometry relative="1" as="geometry">
              <mxPoint x="679.75" y="1473" as="sourcePoint" />
              <mxPoint x="714.6392405063289" y="1522" as="targetPoint" />
            </mxGeometry>
          </mxCell>
        </object>
        <object label="" id="Zh3dSjUnpUvwRO7Crw0d-12">
          <ag_attributes />
          <ag_computed_attributes />
          <mxCell style="edgeStyle=none;rounded=0;orthogonalLoop=1;jettySize=auto;entryX=1;entryY=0.5;entryDx=0;entryDy=0;entryPerimeter=0;jumpStyle=arc;endArrow=classic;endFill=1;strokeWidth=2;spacingRight=20;verticalAlign=top;strokeColor=#000000;" parent="1" source="PANx_2H3_iy-v-Putqux-31" target="kVZn4hKlKfzOOjyC7Y9h-5" edge="1">
            <mxGeometry relative="1" as="geometry">
              <mxPoint x="982" y="1307" as="sourcePoint" />
              <mxPoint x="748" y="1451.5" as="targetPoint" />
            </mxGeometry>
          </mxCell>
        </object>
        <object label="Take over super user / privileged account" Resources="" Knowledge="" Location="" id="Zh3dSjUnpUvwRO7Crw0d-17">
          <ag_attributes label="NaN" Resources="5" Knowledge="5" Location="0" _marking="Zh3dSjUnpUvwRO7Crw0d-33" />
          <ag_computed_attributes fillColor="#40ff00" fontColor="#000000" value="1" />
          <ag_computed_attributes_function_reference ag_computed_attributes_function_reference="dbg60ff69g9a" />
          <ag_aggregation_function_reference ag_aggregation_function_reference="6b1d22791hih8" />
          <mxCell style="verticalAlign=top;align=center;fillColor=#FFFFFF;gradientColor=none;labelBackgroundColor=none;rounded=0;whiteSpace=wrap;shape=attackgraphs.node;spacingRight=20;" parent="1" vertex="1">
            <mxGeometry x="864.5" y="560" width="180" height="60" as="geometry" />
          </mxCell>
        </object>
        <object label="" id="Zh3dSjUnpUvwRO7Crw0d-18">
          <ag_attributes />
          <ag_computed_attributes />
          <mxCell style="endArrow=classic;fontColor=#FEE599;startArrow=none;startFill=0;endFill=1;strokeWidth=2;strokeColor=#000000;" parent="1" source="uPvtzUqCq0j5UhJlTc7c-67" target="Zh3dSjUnpUvwRO7Crw0d-17" edge="1">
            <mxGeometry width="50" height="50" relative="1" as="geometry">
              <mxPoint x="1461.4736842105262" y="408" as="sourcePoint" />
              <mxPoint x="1515.157894736842" y="468" as="targetPoint" />
            </mxGeometry>
          </mxCell>
        </object>
        <object label="Exclude special addresses for smart contracts" Resources="" Knowledge="" Location="" id="Zh3dSjUnpUvwRO7Crw0d-19">
          <ag_attributes label="NaN" Resources="5" Knowledge="5" Location="0" _marking="Zh3dSjUnpUvwRO7Crw0d-17" />
          <ag_computed_attributes fillColor="#40ff00" fontColor="#000000" value="1" />
          <ag_computed_attributes_function_reference ag_computed_attributes_function_reference="dbg60ff69g9a" />
          <ag_aggregation_function_reference ag_aggregation_function_reference="6b1d22791hih8" />
          <mxCell style="verticalAlign=top;align=center;fillColor=#FFFFFF;gradientColor=none;labelBackgroundColor=none;rounded=0;whiteSpace=wrap;shape=attackgraphs.node;spacingRight=20;" parent="1" vertex="1">
            <mxGeometry x="475.5" y="360" width="194.5" height="60" as="geometry" />
          </mxCell>
        </object>
        <object label="2" id="Zh3dSjUnpUvwRO7Crw0d-21">
          <ag_attributes />
          <ag_computed_attributes />
          <mxCell style="endArrow=classic;fontColor=#000000;startArrow=none;startFill=0;endFill=1;strokeWidth=2;strokeColor=#000000;fontSize=15;" parent="1" source="uPvtzUqCq0j5UhJlTc7c-38" target="Zh3dSjUnpUvwRO7Crw0d-19" edge="1">
            <mxGeometry width="50" height="50" relative="1" as="geometry">
              <mxPoint x="786.9200000000001" y="247.9999999999999" as="sourcePoint" />
              <mxPoint x="846.0799999999999" y="350" as="targetPoint" />
              <Array as="points" />
            </mxGeometry>
          </mxCell>
        </object>
        <object label="" id="Zh3dSjUnpUvwRO7Crw0d-22">
          <ag_attributes />
          <ag_computed_attributes />
          <mxCell style="endArrow=classic;fontColor=#FEE599;startArrow=none;startFill=0;endFill=1;strokeWidth=2;strokeColor=#000000;" parent="1" source="Zh3dSjUnpUvwRO7Crw0d-19" target="Zh3dSjUnpUvwRO7Crw0d-17" edge="1">
            <mxGeometry width="50" height="50" relative="1" as="geometry">
              <mxPoint x="1100" y="330" as="sourcePoint" />
              <mxPoint x="1096.3999999999996" y="350" as="targetPoint" />
              <Array as="points" />
            </mxGeometry>
          </mxCell>
        </object>
        <object id="eCq6edl6h6hgmWOPJE0u-24">
          <ag_attributes />
          <ag_computed_attributes />
          <mxCell style="edgeStyle=none;rounded=0;orthogonalLoop=1;jettySize=auto;html=1;strokeWidth=2;startArrow=diamondThin;startFill=1;endArrow=none;endFill=0;strokeColor=#000000;" parent="1" source="Zh3dSjUnpUvwRO7Crw0d-33" target="eCq6edl6h6hgmWOPJE0u-25" edge="1">
            <mxGeometry relative="1" as="geometry">
              <mxPoint x="1063" y="865.6560463432297" as="targetPoint" />
            </mxGeometry>
          </mxCell>
        </object>
        <object label="Perform social engineering" Resources="3" Knowledge="3" Location="0" id="Zh3dSjUnpUvwRO7Crw0d-33">
          <ag_attributes label="NaN" Resources="5" Knowledge="5" Location="0" />
          <ag_computed_attributes fillColor="#40ff00" fontColor="#000000" value="1" />
          <ag_computed_attributes_function_reference ag_computed_attributes_function_reference="dbg60ff69g9a" />
          <ag_aggregation_function_reference ag_aggregation_function_reference="73f575i0ghij5" />
          <mxCell style="verticalAlign=top;align=center;fillColor=#D7E3BF;gradientColor=none;labelBackgroundColor=none;rounded=0;whiteSpace=wrap;fontSize=12;shape=attackgraphs.node;spacingRight=20;" parent="1" vertex="1">
            <mxGeometry x="710" y="760" width="180" height="60" as="geometry" />
          </mxCell>
        </object>
        <object label="" id="Zh3dSjUnpUvwRO7Crw0d-34">
          <ag_attributes />
          <ag_computed_attributes />
          <mxCell style="endArrow=classic;fontColor=#FEE599;startArrow=none;startFill=0;endFill=1;strokeWidth=2;strokeColor=#000000;" parent="1" source="Zh3dSjUnpUvwRO7Crw0d-17" target="Zh3dSjUnpUvwRO7Crw0d-33" edge="1">
            <mxGeometry width="50" height="50" relative="1" as="geometry">
              <mxPoint x="1278.6315789473683" y="618" as="sourcePoint" />
              <mxPoint x="1269.3684210526321" y="684" as="targetPoint" />
            </mxGeometry>
          </mxCell>
        </object>
        <object label="" id="Zh3dSjUnpUvwRO7Crw0d-35">
          <ag_attributes />
          <ag_computed_attributes />
          <mxCell style="endArrow=classic;fontColor=#FEE599;startArrow=none;startFill=0;endFill=1;strokeWidth=2;strokeColor=#000000;" parent="1" source="Zh3dSjUnpUvwRO7Crw0d-17" target="uPvtzUqCq0j5UhJlTc7c-13" edge="1">
            <mxGeometry width="50" height="50" relative="1" as="geometry">
              <mxPoint x="1204.9655172413795" y="732" as="sourcePoint" />
              <mxPoint x="1032.0344827586205" y="800" as="targetPoint" />
            </mxGeometry>
          </mxCell>
        </object>
        <object label="" id="1pDNzRnQ3DDHTgN9yjp4-1">
          <ag_attributes />
          <ag_computed_attributes />
          <mxCell style="edgeStyle=none;rounded=0;orthogonalLoop=1;jettySize=auto;jumpStyle=arc;endArrow=classic;endFill=1;strokeWidth=2;entryX=1;entryY=0.5;entryDx=0;entryDy=0;exitX=0.5;exitY=1;exitDx=0;exitDy=0;entryPerimeter=0;spacingRight=20;verticalAlign=top;strokeColor=#000000;" parent="1" source="PANx_2H3_iy-v-Putqux-29" target="kVZn4hKlKfzOOjyC7Y9h-2" edge="1">
            <mxGeometry relative="1" as="geometry">
              <mxPoint x="562" y="1230" as="sourcePoint" />
              <mxPoint x="501.9967487684728" y="1267.5" as="targetPoint" />
            </mxGeometry>
          </mxCell>
        </object>
        <object id="kVZn4hKlKfzOOjyC7Y9h-1">
          <ag_attributes label="NaN" Resources="5" Knowledge="5" Location="0" _marking="uPvtzUqCq0j5UhJlTc7c-65;PANx_2H3_iy-v-Putqux-1" />
          <ag_computed_attributes />
          <ag_aggregation_function_reference ag_aggregation_function_reference="gf0d4f199018" />
          <mxCell style="shape=or;whiteSpace=wrap;html=1;rotation=-90;" parent="1" vertex="1">
            <mxGeometry x="-83" y="900" width="45" height="60" as="geometry" />
          </mxCell>
        </object>
        <object id="kVZn4hKlKfzOOjyC7Y9h-2">
          <ag_attributes label="NaN" Resources="5" Knowledge="5" Location="1" _marking="PANx_2H3_iy-v-Putqux-9;kVZn4hKlKfzOOjyC7Y9h-3" />
          <ag_computed_attributes />
          <ag_aggregation_function_reference ag_aggregation_function_reference="gf0d4f199018" />
          <mxCell style="shape=or;whiteSpace=wrap;html=1;rotation=-90;spacingRight=20;verticalAlign=top;" parent="1" vertex="1">
            <mxGeometry x="-506.5" y="1250" width="35" height="40" as="geometry" />
          </mxCell>
        </object>
        <object id="kVZn4hKlKfzOOjyC7Y9h-3">
          <ag_attributes label="NaN" Resources="4" Knowledge="4" Location="0" _marking="PANx_2H3_iy-v-Putqux-20" />
          <ag_computed_attributes />
          <ag_aggregation_function_reference ag_aggregation_function_reference="6b1d22791hih8" />
          <mxCell style="shape=xor;whiteSpace=wrap;html=1;rotation=-90;spacingRight=20;verticalAlign=top;" parent="1" vertex="1">
            <mxGeometry x="-630" y="1298" width="25" height="37.5" as="geometry" />
          </mxCell>
        </object>
        <object label="" id="kVZn4hKlKfzOOjyC7Y9h-4">
          <ag_attributes />
          <ag_computed_attributes />
          <mxCell style="edgeStyle=none;rounded=0;orthogonalLoop=1;jettySize=auto;entryX=1;entryY=0.5;entryDx=0;entryDy=0;entryPerimeter=0;jumpStyle=arc;exitX=0;exitY=0.25;exitDx=0;exitDy=0;exitPerimeter=0;endArrow=classic;endFill=1;strokeWidth=2;spacingRight=20;verticalAlign=top;strokeColor=#000000;" parent="1" source="kVZn4hKlKfzOOjyC7Y9h-5" target="kVZn4hKlKfzOOjyC7Y9h-6" edge="1">
            <mxGeometry relative="1" as="geometry">
              <mxPoint x="870" y="1373.25" as="sourcePoint" />
              <mxPoint x="686" y="1439.25" as="targetPoint" />
            </mxGeometry>
          </mxCell>
        </object>
        <object id="kVZn4hKlKfzOOjyC7Y9h-5">
          <ag_attributes label="NaN" Resources="5" Knowledge="5" Location="1" _marking="Zh3dSjUnpUvwRO7Crw0d-3;kVZn4hKlKfzOOjyC7Y9h-6" />
          <ag_computed_attributes />
          <ag_aggregation_function_reference ag_aggregation_function_reference="gf0d4f199018" />
          <mxCell style="shape=or;whiteSpace=wrap;html=1;rotation=-90;spacingRight=20;verticalAlign=top;" parent="1" vertex="1">
            <mxGeometry x="-90" y="1328" width="35" height="40" as="geometry" />
          </mxCell>
        </object>
        <object id="kVZn4hKlKfzOOjyC7Y9h-6">
          <ag_attributes label="NaN" Resources="4" Knowledge="4" Location="0" _marking="Zh3dSjUnpUvwRO7Crw0d-6" />
          <ag_computed_attributes />
          <ag_aggregation_function_reference ag_aggregation_function_reference="6b1d22791hih8" />
          <mxCell style="shape=xor;whiteSpace=wrap;html=1;rotation=-90;spacingRight=20;verticalAlign=top;" parent="1" vertex="1">
            <mxGeometry x="-185" y="1392.5" width="25" height="37.5" as="geometry" />
          </mxCell>
        </object>
        <object label="" id="kVZn4hKlKfzOOjyC7Y9h-7">
          <ag_attributes />
          <ag_computed_attributes />
          <mxCell style="edgeStyle=none;rounded=0;orthogonalLoop=1;jettySize=auto;entryX=1;entryY=0.5;entryDx=0;entryDy=0;entryPerimeter=0;jumpStyle=arc;exitX=0;exitY=0.25;exitDx=0;exitDy=0;exitPerimeter=0;endArrow=classic;endFill=1;strokeWidth=2;strokeColor=#000000;" parent="1" source="kVZn4hKlKfzOOjyC7Y9h-8" target="kVZn4hKlKfzOOjyC7Y9h-9" edge="1">
            <mxGeometry relative="1" as="geometry">
              <mxPoint x="1108" y="1117" as="sourcePoint" />
              <mxPoint x="924" y="1183" as="targetPoint" />
            </mxGeometry>
          </mxCell>
        </object>
        <object id="kVZn4hKlKfzOOjyC7Y9h-8">
          <ag_attributes label="NaN" Resources="5" Knowledge="5" Location="1" _marking="PANx_2H3_iy-v-Putqux-32;kVZn4hKlKfzOOjyC7Y9h-9" />
          <ag_computed_attributes />
          <ag_aggregation_function_reference ag_aggregation_function_reference="gf0d4f199018" />
          <mxCell style="shape=or;whiteSpace=wrap;html=1;rotation=-90;" parent="1" vertex="1">
            <mxGeometry x="1092" y="1120" width="35" height="40" as="geometry" />
          </mxCell>
        </object>
        <object id="kVZn4hKlKfzOOjyC7Y9h-9">
          <ag_attributes label="NaN" Resources="3" Knowledge="3" Location="0" _marking="PANx_2H3_iy-v-Putqux-35" />
          <ag_computed_attributes />
          <ag_aggregation_function_reference ag_aggregation_function_reference="6b1d22791hih8" />
          <mxCell style="shape=xor;whiteSpace=wrap;html=1;rotation=-90;" parent="1" vertex="1">
            <mxGeometry x="1009" y="1170" width="25" height="37.5" as="geometry" />
          </mxCell>
        </object>
        <object label="" id="kVZn4hKlKfzOOjyC7Y9h-10">
          <ag_attributes />
          <ag_computed_attributes />
          <mxCell style="edgeStyle=none;rounded=0;orthogonalLoop=1;jettySize=auto;entryX=1;entryY=0.5;entryDx=0;entryDy=0;entryPerimeter=0;jumpStyle=arc;exitX=0;exitY=0.25;exitDx=0;exitDy=0;exitPerimeter=0;endArrow=classic;endFill=1;strokeWidth=2;strokeColor=#000000;" parent="1" source="kVZn4hKlKfzOOjyC7Y9h-11" target="kVZn4hKlKfzOOjyC7Y9h-12" edge="1">
            <mxGeometry relative="1" as="geometry">
              <mxPoint x="1386" y="938.5" as="sourcePoint" />
              <mxPoint x="1202" y="1004.5" as="targetPoint" />
            </mxGeometry>
          </mxCell>
        </object>
        <object id="kVZn4hKlKfzOOjyC7Y9h-11">
          <ag_attributes label="NaN" Resources="5" Knowledge="5" Location="1" _marking="PANx_2H3_iy-v-Putqux-46;kVZn4hKlKfzOOjyC7Y9h-12" />
          <ag_computed_attributes />
          <ag_aggregation_function_reference ag_aggregation_function_reference="gf0d4f199018" />
          <mxCell style="shape=or;whiteSpace=wrap;html=1;rotation=-90;" parent="1" vertex="1">
            <mxGeometry x="1487" y="868" width="37" height="40" as="geometry" />
          </mxCell>
        </object>
        <object id="kVZn4hKlKfzOOjyC7Y9h-12">
          <ag_attributes label="NaN" Resources="3" Knowledge="3" Location="0" _marking="PANx_2H3_iy-v-Putqux-49" />
          <ag_computed_attributes />
          <ag_aggregation_function_reference ag_aggregation_function_reference="6b1d22791hih8" />
          <mxCell style="shape=xor;whiteSpace=wrap;html=1;rotation=-90;" parent="1" vertex="1">
            <mxGeometry x="1454" y="930" width="25" height="37.5" as="geometry" />
          </mxCell>
        </object>
        <object label="" id="eCq6edl6h6hgmWOPJE0u-2">
          <ag_attributes />
          <ag_computed_attributes />
          <mxCell style="endArrow=none;dashed=1;html=1;rounded=0;strokeWidth=1;strokeColor=#000000;" parent="1" edge="1">
            <mxGeometry width="50" height="50" relative="1" as="geometry">
              <mxPoint x="-410" y="1690" as="sourcePoint" />
              <mxPoint x="3050" y="1680" as="targetPoint" />
            </mxGeometry>
          </mxCell>
        </object>
        <object label="Privacy Enhancing Technologies" Resources="2" Knowledge="2" Location="0" id="eCq6edl6h6hgmWOPJE0u-5">
          <ag_attributes />
          <ag_computed_attributes />
          <mxCell style="shape=attackgraphs.node;fillColor=#DAE8FC;verticalAlign=top;" parent="1" vertex="1">
            <mxGeometry x="2550" y="1720" width="208" height="75" as="geometry" />
          </mxCell>
        </object>
        <object label="Encryption" Resources="5" Knowledge="3" Location="0" id="eCq6edl6h6hgmWOPJE0u-7">
          <ag_attributes />
          <ag_computed_attributes />
          <mxCell style="shape=attackgraphs.node;fillColor=#DAE8FC;verticalAlign=top;" parent="1" vertex="1">
            <mxGeometry x="2255" y="930" width="150" height="75" as="geometry" />
          </mxCell>
        </object>
        <object label="Access Restriction&#10;Secure Storage" Resources="1" Knowledge="2" Location="0" id="eCq6edl6h6hgmWOPJE0u-8">
          <ag_attributes />
          <ag_computed_attributes />
          <mxCell style="shape=attackgraphs.node;fillColor=#DAE8FC;verticalAlign=top;" parent="1" vertex="1">
            <mxGeometry x="1885" y="650" width="170" height="75" as="geometry" />
          </mxCell>
        </object>
        <object label="Digital Signature" Resources="2" Knowledge="2" Location="1" id="eCq6edl6h6hgmWOPJE0u-9">
          <ag_attributes />
          <ag_computed_attributes />
          <mxCell style="shape=attackgraphs.node;fillColor=#DAE8FC;verticalAlign=top;" parent="1" vertex="1">
            <mxGeometry x="1427" y="1317.5" width="150" height="75" as="geometry" />
          </mxCell>
        </object>
        <object label="Redundancy&#10;Plausibility Check" Resources="3" Knowledge="2" Location="0" id="eCq6edl6h6hgmWOPJE0u-18">
          <ag_attributes />
          <ag_computed_attributes />
          <mxCell style="shape=attackgraphs.node;fillColor=#DAE8FC;verticalAlign=top;" parent="1" vertex="1">
            <mxGeometry x="1808" y="1720" width="214" height="85" as="geometry" />
          </mxCell>
        </object>
        <object label="Malware Protection&#10;Firewall&#10;Vulnerabilityscans&#10;Penetration testing&#10;Awareness Training" Resources="2" Knowledge="3" Location="0" id="eCq6edl6h6hgmWOPJE0u-21">
          <ag_attributes />
          <ag_computed_attributes />
          <mxCell style="shape=attackgraphs.node;fillColor=#DAE8FC;align=left;verticalAlign=top;" parent="1" vertex="1">
            <mxGeometry x="1470" y="1510" width="212" height="110" as="geometry" />
          </mxCell>
        </object>
        <object label="Malware Protection&#10;Firewall&#10;Penetration testing&#10;Awareness Training&#10;Security Monitoring" Resources="2" Knowledge="3" Location="0" id="eCq6edl6h6hgmWOPJE0u-25">
          <ag_attributes />
          <ag_computed_attributes />
          <mxCell style="shape=attackgraphs.node;fillColor=#DAE8FC;align=left;verticalAlign=top;" parent="1" vertex="1">
            <mxGeometry x="720.5" y="840" width="159" height="105" as="geometry" />
          </mxCell>
        </object>
        <object label="Digital Signature" Resources="2" Knowledge="2" Location="1" id="eCq6edl6h6hgmWOPJE0u-26">
          <ag_attributes />
          <ag_computed_attributes />
          <mxCell style="shape=attackgraphs.node;fillColor=#DAE8FC;verticalAlign=top;" parent="1" vertex="1">
            <mxGeometry x="270" y="1530" width="150" height="75" as="geometry" />
          </mxCell>
        </object>
        <object label="Awareness Training&#10;Validation and Tests (including regular repetition)&#10;Four-eyes Principle" Resources="3" Knowledge="4" Location="0" id="eCq6edl6h6hgmWOPJE0u-29">
          <ag_attributes />
          <ag_computed_attributes />
          <mxCell style="shape=attackgraphs.node;fillColor=#DAE8FC;align=left;verticalAlign=top;spacingLeft=2;" parent="1" vertex="1">
            <mxGeometry x="480" y="1530" width="330" height="80" as="geometry" />
          </mxCell>
        </object>
        <object label="Monitoring for Tracing" Impact="2" id="eCq6edl6h6hgmWOPJE0u-32">
          <ag_attributes />
          <ag_computed_attributes />
          <mxCell style="shape=attackgraphs.node;fillColor=#DAE8FC;fontSize=12;align=left;verticalAlign=top;spacingLeft=2;whiteSpace=wrap;" parent="1" vertex="1">
            <mxGeometry x="1507.5" y="260" width="120" height="77" as="geometry" />
          </mxCell>
        </object>
        <object id="eCq6edl6h6hgmWOPJE0u-33">
          <ag_attributes />
          <ag_computed_attributes />
          <mxCell style="edgeStyle=none;rounded=0;orthogonalLoop=1;jettySize=auto;html=1;strokeWidth=2;startArrow=diamondThin;startFill=1;endArrow=none;endFill=0;strokeColor=#000000;fontSize=15;" parent="1" source="eCq6edl6h6hgmWOPJE0u-34" target="eCq6edl6h6hgmWOPJE0u-32" edge="1">
            <mxGeometry relative="1" as="geometry" />
          </mxCell>
        </object>
        <object id="eCq6edl6h6hgmWOPJE0u-35">
          <ag_attributes />
          <ag_computed_attributes />
          <mxCell style="edgeStyle=none;rounded=1;orthogonalLoop=1;jettySize=auto;html=1;strokeWidth=2;startArrow=none;startFill=0;endArrow=classic;endFill=1;fontColor=#FEE599;strokeColor=#000000;fontSize=15;" parent="1" source="eCq6edl6h6hgmWOPJE0u-34" target="uPvtzUqCq0j5UhJlTc7c-40" edge="1">
            <mxGeometry relative="1" as="geometry" />
          </mxCell>
        </object>
        <object label="" id="eCq6edl6h6hgmWOPJE0u-34">
          <ag_attributes _af="3" _marking="uPvtzUqCq0j5UhJlTc7c-40" _impact="2" />
          <ag_computed_attributes />
          <ag_aggregation_function_reference ag_aggregation_function_reference="397423adceb0f" />
          <mxCell style="shape=attackgraphs.node;allowArrows=0;fontSize=15;" parent="1" vertex="1">
            <mxGeometry x="1407" y="310" width="21" height="20" as="geometry" />
          </mxCell>
        </object>
        <object label="Hardened Device&#10;Restrictid Permissions&#10;Malware Protection" Resources="2" Knowledge="2" Location="1" id="_DiuqgOfEGZcNAKlj9fZ-1">
          <ag_attributes />
          <ag_computed_attributes />
          <mxCell style="shape=attackgraphs.node;fillColor=#DAE8FC;verticalAlign=top;" parent="1" vertex="1">
            <mxGeometry x="2537" y="930" width="170" height="75" as="geometry" />
          </mxCell>
        </object>
        <object label="Data Minimization" Resources="1" Knowledge="1" Location="0" id="_DiuqgOfEGZcNAKlj9fZ-2">
          <ag_attributes />
          <ag_computed_attributes />
          <mxCell style="shape=attackgraphs.node;fillColor=#DAE8FC;verticalAlign=top;" parent="1" vertex="1">
            <mxGeometry x="2786" y="1720" width="150" height="75" as="geometry" />
          </mxCell>
        </object>
        <object id="_DiuqgOfEGZcNAKlj9fZ-3">
          <ag_attributes />
          <ag_computed_attributes />
          <mxCell style="rounded=0;orthogonalLoop=1;jettySize=auto;html=1;strokeWidth=2;startArrow=none;startFill=0;endArrow=none;endFill=0;strokeColor=#000000;verticalAlign=top;" parent="1" source="eCq6edl6h6hgmWOPJE0u-21" target="_DiuqgOfEGZcNAKlj9fZ-4" edge="1">
            <mxGeometry relative="1" as="geometry">
              <mxPoint x="1647" y="1620" as="sourcePoint" />
            </mxGeometry>
          </mxCell>
        </object>
        <object label="Responsiveness to security vulnerabilities" id="_DiuqgOfEGZcNAKlj9fZ-4">
          <ag_attributes />
          <ag_computed_attributes />
          <mxCell style="shape=attackgraphs.node;fillColor=#DAE8FC;verticalAlign=top;" parent="1" vertex="1">
            <mxGeometry x="1461" y="1720" width="230" height="75" as="geometry" />
          </mxCell>
        </object>
        <object id="H5YiigOTkMO85wwIDj1j-1">
          <ag_attributes />
          <ag_computed_attributes />
          <mxCell style="edgeStyle=none;rounded=0;orthogonalLoop=1;jettySize=auto;html=1;strokeWidth=2;startArrow=diamondThin;startFill=1;endArrow=none;endFill=0;strokeColor=#000000;" parent="1" source="Zh3dSjUnpUvwRO7Crw0d-3" target="eCq6edl6h6hgmWOPJE0u-26" edge="1">
            <mxGeometry relative="1" as="geometry">
              <mxPoint x="220" y="1080" as="sourcePoint" />
            </mxGeometry>
          </mxCell>
        </object>
        <object id="H5YiigOTkMO85wwIDj1j-2">
          <ag_attributes />
          <ag_computed_attributes />
          <mxCell style="edgeStyle=none;rounded=0;orthogonalLoop=1;jettySize=auto;html=1;strokeWidth=2;startArrow=diamondThin;startFill=1;endArrow=none;endFill=0;strokeColor=#000000;" parent="1" source="PANx_2H3_iy-v-Putqux-9" target="eCq6edl6h6hgmWOPJE0u-26" edge="1">
            <mxGeometry relative="1" as="geometry">
              <mxPoint x="220" y="1080" as="sourcePoint" />
            </mxGeometry>
          </mxCell>
        </object>
        <object label="Gain Access Data Center local" Resources="3" Knowledge="3" Location="1" id="Zh3dSjUnpUvwRO7Crw0d-5">
          <ag_attributes label="NaN" Resources="4" Knowledge="4" Location="1" />
          <ag_computed_attributes fillColor="#40ff00" fontColor="#000000" value="1" />
          <ag_computed_attributes_function_reference ag_computed_attributes_function_reference="dbg60ff69g9a" />
          <ag_aggregation_function_reference ag_aggregation_function_reference="73f575i0ghij5" />
          <mxCell style="whiteSpace=wrap;rounded=0;fillColor=#D7E3BF;strokeColor=#000000;shape=attackgraphs.node;spacingRight=20;verticalAlign=top;" parent="1" vertex="1">
            <mxGeometry x="-332.5" y="1440" width="150" height="60" as="geometry" />
          </mxCell>
        </object>
        <object label="Access Control" Resources="1" Knowledge="1" Location="0" id="H5YiigOTkMO85wwIDj1j-3">
          <ag_attributes />
          <ag_computed_attributes />
          <mxCell style="shape=attackgraphs.node;fillColor=#DAE8FC;verticalAlign=top;" parent="1" vertex="1">
            <mxGeometry x="-490" y="1590" width="150" height="75" as="geometry" />
          </mxCell>
        </object>
        <object id="H5YiigOTkMO85wwIDj1j-4">
          <ag_attributes />
          <ag_computed_attributes />
          <mxCell style="edgeStyle=none;rounded=0;orthogonalLoop=1;jettySize=auto;html=1;strokeWidth=2;startArrow=diamondThin;startFill=1;endArrow=none;endFill=0;strokeColor=#000000;" parent="1" source="PANx_2H3_iy-v-Putqux-20" target="H5YiigOTkMO85wwIDj1j-3" edge="1">
            <mxGeometry relative="1" as="geometry">
              <mxPoint x="220" y="1080" as="sourcePoint" />
            </mxGeometry>
          </mxCell>
        </object>
        <object id="H5YiigOTkMO85wwIDj1j-5">
          <ag_attributes />
          <ag_computed_attributes />
          <mxCell style="edgeStyle=none;rounded=0;orthogonalLoop=1;jettySize=auto;html=1;strokeWidth=2;startArrow=diamondThin;startFill=1;endArrow=none;endFill=0;strokeColor=#000000;" parent="1" source="Zh3dSjUnpUvwRO7Crw0d-6" target="H5YiigOTkMO85wwIDj1j-3" edge="1">
            <mxGeometry relative="1" as="geometry">
              <mxPoint x="220" y="1080" as="sourcePoint" />
            </mxGeometry>
          </mxCell>
        </object>
        <object label="Access Restriction" Resources="1" Knowledge="1" Location="0" id="H5YiigOTkMO85wwIDj1j-6">
          <ag_attributes />
          <ag_computed_attributes />
          <mxCell style="shape=attackgraphs.node;fillColor=#DAE8FC;verticalAlign=top;" parent="1" vertex="1">
            <mxGeometry x="-690" y="1590" width="150" height="75" as="geometry" />
          </mxCell>
        </object>
        <object id="H5YiigOTkMO85wwIDj1j-7">
          <ag_attributes />
          <ag_computed_attributes />
          <mxCell style="edgeStyle=none;rounded=0;orthogonalLoop=1;jettySize=auto;html=1;strokeWidth=2;startArrow=diamondThin;startFill=1;endArrow=none;endFill=0;strokeColor=#000000;" parent="1" source="PANx_2H3_iy-v-Putqux-19" target="H5YiigOTkMO85wwIDj1j-6" edge="1">
            <mxGeometry relative="1" as="geometry">
              <mxPoint x="220" y="1080" as="sourcePoint" />
            </mxGeometry>
          </mxCell>
        </object>
        <object id="H5YiigOTkMO85wwIDj1j-8">
          <ag_attributes />
          <ag_computed_attributes />
          <mxCell style="edgeStyle=none;rounded=0;orthogonalLoop=1;jettySize=auto;html=1;strokeWidth=2;startArrow=diamondThin;startFill=1;endArrow=none;endFill=0;strokeColor=#000000;" parent="1" source="Zh3dSjUnpUvwRO7Crw0d-5" target="H5YiigOTkMO85wwIDj1j-6" edge="1">
            <mxGeometry relative="1" as="geometry">
              <mxPoint x="220" y="1080" as="sourcePoint" />
            </mxGeometry>
          </mxCell>
        </object>
        <object label="Feed in manipulated data" Resources="3" Knowledge="3" Location="0" id="Zh3dSjUnpUvwRO7Crw0d-3">
          <ag_attributes label="NaN" Resources="5" Knowledge="5" Location="1" />
          <ag_computed_attributes fillColor="#40ff00" fontColor="#000000" value="1" />
          <ag_computed_attributes_function_reference ag_computed_attributes_function_reference="dbg60ff69g9a" />
          <ag_aggregation_function_reference ag_aggregation_function_reference="73f575i0ghij5" />
          <mxCell style="whiteSpace=wrap;rounded=0;fillColor=#D7E3BF;strokeColor=#000000;shape=attackgraphs.node;spacingRight=20;verticalAlign=top;" parent="1" vertex="1">
            <mxGeometry x="12" y="1440" width="150" height="60" as="geometry" />
          </mxCell>
        </object>
        <object label="Multi-factor authentication&#10;Biometric Authentification (Voice Analysis: Pitch, Speaking Rate, Speech Pattern)" Resources="1" Knowledge="1" Location="0" id="H5YiigOTkMO85wwIDj1j-9">
          <ag_attributes />
          <ag_computed_attributes />
          <mxCell style="shape=attackgraphs.node;fillColor=#DAE8FC;verticalAlign=top;align=left;whiteSpace=wrap;" parent="1" vertex="1">
            <mxGeometry x="-239" y="1730" width="299" height="90" as="geometry" />
          </mxCell>
        </object>
        <object id="H5YiigOTkMO85wwIDj1j-10">
          <ag_attributes />
          <ag_computed_attributes />
          <mxCell style="edgeStyle=none;rounded=0;orthogonalLoop=1;jettySize=auto;html=1;strokeWidth=2;startArrow=diamondThin;startFill=1;endArrow=none;endFill=0;strokeColor=#000000;" parent="1" source="uPvtzUqCq0j5UhJlTc7c-65" target="H5YiigOTkMO85wwIDj1j-9" edge="1">
            <mxGeometry relative="1" as="geometry">
              <mxPoint x="220" y="1080" as="sourcePoint" />
            </mxGeometry>
          </mxCell>
        </object>
        <object id="H5YiigOTkMO85wwIDj1j-11">
          <ag_attributes />
          <ag_computed_attributes />
          <mxCell style="edgeStyle=none;rounded=0;orthogonalLoop=1;jettySize=auto;html=1;strokeWidth=2;startArrow=diamondThin;startFill=1;endArrow=none;endFill=0;strokeColor=#000000;" parent="1" source="PANx_2H3_iy-v-Putqux-1" target="H5YiigOTkMO85wwIDj1j-9" edge="1">
            <mxGeometry relative="1" as="geometry">
              <mxPoint x="220" y="1080" as="sourcePoint" />
            </mxGeometry>
          </mxCell>
        </object>
        <object label="Gain Access Data Center remote" Resources="3" Knowledge="3" Location="0" id="Zh3dSjUnpUvwRO7Crw0d-6">
          <ag_attributes label="NaN" Resources="4" Knowledge="4" Location="0" />
          <ag_computed_attributes fillColor="#d4ff00" fontColor="#000000" value="2" />
          <ag_computed_attributes_function_reference ag_computed_attributes_function_reference="dbg60ff69g9a" />
          <ag_aggregation_function_reference ag_aggregation_function_reference="73f575i0ghij5" />
          <mxCell style="whiteSpace=wrap;rounded=0;fillColor=#D7E3BF;strokeColor=#000000;shape=attackgraphs.node;spacingRight=20;verticalAlign=top;" parent="1" vertex="1">
            <mxGeometry x="-160" y="1440" width="150" height="60" as="geometry" />
          </mxCell>
        </object>
        <object label="unconscious manipulation" Resources="" Knowledge="" Location="" id="PANx_2H3_iy-v-Putqux-13">
          <ag_attributes label="NaN" Resources="5" Knowledge="5" Location="1" _marking="PANx_2H3_iy-v-Putqux-14" />
          <ag_computed_attributes fillColor="#40ff00" fontColor="#000000" value="1" />
          <ag_computed_attributes_function_reference ag_computed_attributes_function_reference="dbg60ff69g9a" />
          <ag_aggregation_function_reference ag_aggregation_function_reference="6b1d22791hih8" />
          <mxCell style="whiteSpace=wrap;rounded=0;shape=attackgraphs.node;verticalAlign=top;spacingRight=20;" parent="1" vertex="1">
            <mxGeometry x="505.5" y="1000" width="150" height="60" as="geometry" />
          </mxCell>
        </object>
        <object id="H5YiigOTkMO85wwIDj1j-12">
          <ag_attributes />
          <ag_computed_attributes />
          <mxCell style="edgeStyle=none;rounded=0;orthogonalLoop=1;jettySize=auto;html=1;strokeWidth=2;startArrow=diamondThin;startFill=1;endArrow=none;endFill=0;strokeColor=#000000;" parent="1" source="PANx_2H3_iy-v-Putqux-46" target="eCq6edl6h6hgmWOPJE0u-9" edge="1">
            <mxGeometry relative="1" as="geometry" />
          </mxCell>
        </object>
        <object id="H5YiigOTkMO85wwIDj1j-13">
          <ag_attributes />
          <ag_computed_attributes />
          <mxCell style="edgeStyle=none;rounded=0;orthogonalLoop=1;jettySize=auto;html=1;strokeWidth=2;startArrow=diamondThin;startFill=1;endArrow=none;endFill=0;strokeColor=#000000;" parent="1" source="PANx_2H3_iy-v-Putqux-32" target="eCq6edl6h6hgmWOPJE0u-9" edge="1">
            <mxGeometry relative="1" as="geometry" />
          </mxCell>
        </object>
        <object label="Inject malware" Resources="3" Knowledge="3" Location="0" id="uPvtzUqCq0j5UhJlTc7c-13">
          <ag_attributes label="NaN" Resources="5" Knowledge="5" Location="0" />
          <ag_computed_attributes fillColor="#40ff00" fontColor="#000000" value="1" />
          <ag_computed_attributes_function_reference ag_computed_attributes_function_reference="dbg60ff69g9a" />
          <ag_aggregation_function_reference ag_aggregation_function_reference="73f575i0ghij5" />
          <mxCell style="verticalAlign=top;align=center;gradientColor=none;labelBackgroundColor=none;rounded=0;whiteSpace=wrap;fillColor=#D7E3BF;shape=attackgraphs.node;spacingRight=20;" parent="1" vertex="1">
            <mxGeometry x="1750" y="760" width="144" height="60" as="geometry" />
          </mxCell>
        </object>
        <object label="Eavesdrop on personal device" Resources="2" Knowledge="2" Location="0" id="uPvtzUqCq0j5UhJlTc7c-8">
          <ag_attributes label="NaN" Resources="4" Knowledge="4" Location="1" />
          <ag_computed_attributes fillColor="#40ff00" fontColor="#000000" value="1" />
          <ag_computed_attributes_function_reference ag_computed_attributes_function_reference="dbg60ff69g9a" />
          <ag_aggregation_function_reference ag_aggregation_function_reference="73f575i0ghij5" />
          <mxCell style="verticalAlign=top;align=center;fillColor=#fee599;gradientColor=none;labelBackgroundColor=none;rounded=0;whiteSpace=wrap;shape=attackgraphs.node;spacingRight=20;" parent="1" vertex="1">
            <mxGeometry x="2550" y="760" width="144" height="60" as="geometry" />
          </mxCell>
        </object>
        <object label="MFA through extra approval of the booking" id="Lk03vesRnJ9wN9lAQ0JK-2">
          <ag_attributes />
          <ag_computed_attributes />
          <mxCell style="shape=callout;whiteSpace=wrap;perimeter=calloutPerimeter;position2=0.33;" parent="1" vertex="1">
            <mxGeometry x="42" y="1670" width="120" height="80" as="geometry" />
          </mxCell>
        </object>
      </root>
    </mxGraphModel>
  </diagram>
</mxfile>